<?xml version="1.0" standalone="yes"?>

<svg version="1.1" viewBox="0.0 0.0 216.0 249.0" fill="none" stroke="none" stroke-linecap="square" stroke-miterlimit="10" xmlns="http://www.w3.org/2000/svg" xmlns:xlink="http://www.w3.org/1999/xlink"><clipPath id="p.0"><path d="m0 0l216.0 0l0 249.0l-216.0 0l0 -249.0z" clip-rule="nonzero"></path></clipPath><g clip-path="url(#p.0)"><path fill="#000000" fill-opacity="0.0" d="m0 0l216.19948 0l0 249.83464l-216.19948 0z" fill-rule="nonzero"></path><path fill="#000000" fill-opacity="0.0" d="m98.08541 62.992126l0 17.450562l0.06299591 0l0 17.447075" fill-rule="nonzero"></path><path stroke="#000000" stroke-width="1.0" stroke-linejoin="round" stroke-linecap="butt" d="m98.08541 62.992126l0 17.450562l0.06299591 0l0 14.019989" fill-rule="evenodd"></path><path fill="#000000" stroke="#000000" stroke-width="1.0" stroke-linecap="butt" d="m98.14841 94.46268l-1.1245804 -1.1245804l1.1245804 3.0897675l1.1245804 -3.0897675z" fill-rule="evenodd"></path><path fill="#000000" fill-opacity="0.0" d="m24.636618 97.89349l146.89764 0l0 54.04724l-146.89764 0z" fill-rule="nonzero"></path><path stroke="#000000" stroke-width="1.0" stroke-linejoin="round" stroke-linecap="butt" d="m24.636618 97.89349l146.89764 0l0 54.04724l-146.89764 0z" fill-rule="nonzero"></path><path fill="#000000" d="m75.34284 115.854l-4.640625 0l-0.84375 4.0l0.796875 0q0.375 0 0.453125 0.078125q0.09375 0.0625 0.09375 0.203125q0 0.171875 -0.140625 0.296875q-0.140625 0.125 -0.40625 0.125l-2.421875 0q-0.234375 0 -0.3125 -0.09375q-0.078125 -0.09375 -0.078125 -0.234375q0 -0.15625 0.125 -0.265625q0.140625 -0.109375 0.40625 -0.109375l0.796875 0l1.765625 -8.3125l-0.78125 0q-0.359375 0 -0.484375 -0.0625q-0.109375 -0.0625 -0.09375 -0.25q0 -0.15625 0.109375 -0.25q0.109375 -0.109375 0.46875 -0.140625l2.34375 0q0.296875 0.046875 0.375 0.078125q0.078125 0.015625 0.09375 0.1875q0 0.171875 -0.09375 0.296875q-0.09375 0.109375 -0.453125 0.140625l-0.796875 0l-0.765625 3.625l4.625 0l0.765625 -3.625l-0.78125 0q-0.390625 0 -0.46875 -0.0625q-0.078125 -0.078125 -0.078125 -0.21875q0 -0.171875 0.125 -0.296875q0.140625 -0.125 0.421875 -0.125l2.078125 0q0.4375 0.015625 0.578125 0.078125q0.140625 0.046875 0.15625 0.203125q0.015625 0.171875 -0.109375 0.28125q-0.109375 0.109375 -0.421875 0.140625l-0.796875 0l-1.765625 8.3125l0.78125 0q0.34375 -0.015625 0.4375 0.109375q0.109375 0.109375 0.109375 0.234375q0 0.171875 -0.171875 0.265625q-0.171875 0.09375 -0.515625 0.09375l-2.25 0q-0.234375 0 -0.328125 -0.0625q-0.09375 -0.0625 -0.09375 -0.1875q0 -0.171875 0.0625 -0.28125q0.078125 -0.125 0.484375 -0.171875l0.78125 0l0.859375 -4.0zm9.32045 -4.3125l-1.765625 8.3125l2.390625 0q0.21875 0 0.296875 0.078125q0.09375 0.0625 0.09375 0.203125q0 0.171875 -0.140625 0.296875q-0.125 0.125 -0.40625 0.125l-5.484375 0q-0.21875 0 -0.3125 -0.078125q-0.078125 -0.078125 -0.078125 -0.203125q0 -0.171875 0.125 -0.296875q0.140625 -0.125 0.421875 -0.125l2.390625 0l1.765625 -8.3125l-2.390625 0q-0.234375 0 -0.3125 -0.0625q-0.078125 -0.078125 -0.078125 -0.21875q0 -0.171875 0.125 -0.296875q0.140625 -0.125 0.421875 -0.125l5.46875 0q0.234375 0 0.3125 0.078125q0.09375 0.0625 0.09375 0.203125q0 0.171875 -0.140625 0.296875q-0.140625 0.125 -0.40625 0.125l-2.390625 0zm12.773575 0l-1.3125 6.15625q-0.265625 1.28125 -1.421875 2.21875q-1.140625 0.921875 -2.4375 0.921875q-0.8125 0 -1.484375 -0.359375q-0.671875 -0.375 -1.40625 -1.1875l0.546875 -2.578125q0.0625 -0.25 0.171875 -0.359375q0.125 -0.109375 0.296875 -0.109375q0.109375 0 0.1875 0.078125q0.078125 0.078125 0.078125 0.1875q0 0.078125 -0.03125 0.203125l-0.46875 2.234375q1.015625 1.1875 2.25 1.1875q0.65625 0 1.25 -0.28125q0.59375 -0.28125 1.109375 -0.875q0.515625 -0.609375 0.65625 -1.28125l1.3125 -6.15625l-2.734375 0q-0.234375 0 -0.328125 -0.0625q-0.078125 -0.078125 -0.078125 -0.21875q0 -0.171875 0.140625 -0.296875q0.140625 -0.125 0.40625 -0.125l5.109375 0q0.21875 0 0.296875 0.078125q0.09375 0.0625 0.09375 0.203125q0 0.171875 -0.140625 0.296875q-0.140625 0.125 -0.40625 0.125l-1.65625 0zm10.1642 0q0.09375 -0.46875 0.1875 -0.5625q0.140625 -0.140625 0.3125 -0.140625q0.125 0 0.203125 0.078125q0.078125 0.078125 0.078125 0.1875q0 0.0625 -0.03125 0.203125l-0.375 1.78125q-0.0625 0.25 -0.1875 0.359375q-0.109375 0.109375 -0.265625 0.109375q-0.125 0 -0.203125 -0.078125q-0.078125 -0.078125 -0.078125 -0.1875q0 -0.0625 0.015625 -0.171875q0.03125 -0.109375 0.03125 -0.21875q0 -0.625 -0.578125 -1.09375q-0.5625 -0.484375 -1.546875 -0.484375q-1.3125 0 -2.15625 0.734375q-0.828125 0.71875 -0.828125 1.609375q0 0.640625 0.5 0.984375q0.5 0.359375 1.75 0.578125q1.265625 0.203125 1.703125 0.375q0.609375 0.25 0.921875 0.6875q0.3125 0.4375 0.3125 1.0625q0 0.875 -0.515625 1.6875q-0.5 0.796875 -1.546875 1.296875q-1.03125 0.5 -2.140625 0.5q-0.90625 0 -1.578125 -0.28125q-0.65625 -0.296875 -1.078125 -0.859375l-0.078125 0.390625q-0.046875 0.25 -0.171875 0.359375q-0.125 0.109375 -0.28125 0.109375q-0.125 0 -0.203125 -0.078125q-0.078125 -0.078125 -0.078125 -0.171875q0 -0.078125 0.03125 -0.21875l0.40625 -1.921875q0.046875 -0.25 0.171875 -0.359375q0.125 -0.109375 0.28125 -0.109375q0.125 0 0.203125 0.078125q0.078125 0.0625 0.078125 0.171875q0 0.046875 -0.03125 0.171875q-0.015625 0.109375 -0.015625 0.234375q0 0.703125 0.640625 1.25q0.65625 0.53125 1.859375 0.53125q0.90625 0 1.71875 -0.390625q0.8125 -0.390625 1.21875 -1.0q0.40625 -0.609375 0.40625 -1.203125q0 -0.46875 -0.25 -0.796875q-0.234375 -0.328125 -0.734375 -0.53125q-0.328125 -0.125 -1.4375 -0.328125q-1.484375 -0.265625 -2.125 -0.71875q-0.640625 -0.46875 -0.640625 -1.359375q0 -1.234375 1.078125 -2.203125q1.09375 -0.984375 2.734375 -0.984375q0.71875 0 1.296875 0.234375q0.59375 0.21875 1.015625 0.6875zm5.94545 9.296875q-1.421875 0 -2.375 -1.03125q-0.9375 -1.03125 -0.9375 -2.765625q0 -1.375 0.546875 -2.609375q0.546875 -1.25 1.375 -2.109375q0.828125 -0.859375 1.71875 -1.28125q0.90625 -0.421875 1.828125 -0.421875q1.6875 0 2.5 1.171875q0.8125 1.171875 0.8125 2.578125q0 1.65625 -0.828125 3.21875q-0.828125 1.546875 -2.109375 2.40625q-1.28125 0.84375 -2.53125 0.84375zm0.125 -0.703125q1.03125 0 2.140625 -0.734375q1.109375 -0.75 1.78125 -2.109375q0.6875 -1.359375 0.6875 -2.75q0 -1.46875 -0.796875 -2.34375q-0.78125 -0.875 -1.890625 -0.875q-0.78125 0 -1.546875 0.375q-0.75 0.359375 -1.453125 1.109375q-0.703125 0.734375 -1.171875 1.8125q-0.46875 1.078125 -0.46875 2.21875q0 1.53125 0.78125 2.421875q0.796875 0.875 1.9375 0.875zm13.742325 0.421875l-0.90625 0l-3.28125 -8.6875l-1.703125 7.984375l1.28125 0q0.234375 0 0.3125 0.078125q0.09375 0.0625 0.09375 0.203125q0 0.171875 -0.140625 0.296875q-0.140625 0.125 -0.40625 0.125l-2.578125 0q-0.234375 0 -0.3125 -0.078125q-0.078125 -0.078125 -0.078125 -0.203125q0 -0.171875 0.125 -0.296875q0.140625 -0.125 0.421875 -0.125l0.578125 0l1.765625 -8.3125l-0.9375 0q-0.21875 0 -0.3125 -0.0625q-0.078125 -0.078125 -0.078125 -0.21875q0 -0.171875 0.125 -0.296875q0.140625 -0.125 0.421875 -0.125l1.8125 0l3.296875 8.71875l1.7031174 -8.015625l-1.2812424 0q-0.234375 0 -0.328125 -0.0625q-0.078125 -0.078125 -0.078125 -0.21875q0 -0.171875 0.140625 -0.296875q0.140625 -0.125 0.40625 -0.125l2.5781174 0q0.234375 0 0.3125 0.078125q0.09375 0.0625 0.09375 0.203125q0 0.171875 -0.140625 0.296875q-0.140625 0.125 -0.40625 0.125l-0.59375 0l-1.9062424 9.015625z" fill-rule="nonzero"></path><path fill="#000000" d="m82.214005 132.80711l0.109375 -0.5q0.046875 -0.25 0.15625 -0.359375q0.125 -0.109375 0.28125 -0.109375q0.125 0 0.203125 0.078125q0.078125 0.078125 0.078125 0.1875q0 0.0625 -0.03125 0.203125l-0.40625 1.9375q-0.0625 0.25 -0.1875 0.359375q-0.109375 0.109375 -0.265625 0.109375q-0.125 0 -0.203125 -0.078125q-0.078125 -0.078125 -0.078125 -0.171875q0 -0.0625 0.015625 -0.15625q0.015625 -0.109375 0.015625 -0.21875q0 -0.640625 -0.609375 -1.125q-0.796875 -0.640625 -1.9375 -0.640625q-0.78125 0 -1.578125 0.34375q-0.609375 0.265625 -1.0 0.640625q-0.71875 0.703125 -1.1875 1.484375q-0.328125 0.546875 -0.484375 1.265625l-0.265625 1.21875q-0.078125 0.390625 -0.078125 0.765625q0 1.328125 0.859375 2.21875q0.875 0.875 2.15625 0.875q0.875 0 1.65625 -0.375q0.796875 -0.390625 1.65625 -1.203125q0.1875 -0.171875 0.34375 -0.171875q0.140625 0 0.203125 0.078125q0.078125 0.0625 0.078125 0.171875q0 0.171875 -0.1875 0.375q-0.796875 0.84375 -1.859375 1.34375q-1.046875 0.484375 -2.03125 0.484375q-0.828125 0 -1.578125 -0.34375q-0.546875 -0.25 -0.875 -0.59375q-0.5 -0.515625 -0.828125 -1.234375q-0.328125 -0.71875 -0.328125 -1.40625q0 -0.453125 0.09375 -0.890625l0.296875 -1.421875q0.234375 -1.015625 1.015625 -2.09375q0.796875 -1.09375 1.875 -1.65625q1.078125 -0.578125 2.171875 -0.578125q0.875 0 1.546875 0.296875q0.6875 0.296875 1.1875 0.890625zm7.94545 -1.671875l-2.0625 9.71875l2.734375 0q0.234375 0 0.3125 0.078125q0.09375 0.0625 0.09375 0.203125q0 0.171875 -0.140625 0.296875q-0.140625 0.125 -0.40625 0.125l-6.171875 0q-0.234375 0 -0.328125 -0.078125q-0.078125 -0.078125 -0.078125 -0.203125q0 -0.171875 0.140625 -0.296875q0.140625 -0.125 0.40625 -0.125l2.75 0l1.90625 -9.015625l-2.015625 0q-0.234375 0 -0.3125 -0.0625q-0.078125 -0.078125 -0.078125 -0.21875q0 -0.15625 0.125 -0.28125q0.140625 -0.140625 0.421875 -0.140625l2.703125 0zm9.836075 10.421875l0.21875 -1.0q-1.796875 1.28125 -3.53125 1.28125q-1.109375 0 -1.671875 -0.5q-0.5625 -0.5 -0.5625 -1.25q0 -1.140625 1.0 -1.953125q1.234375 -1.015625 3.21875 -1.015625q0.953125 0 2.21875 0.25l0.25 -1.125q0.015625 -0.125 0.015625 -0.25q0 -0.484375 -0.375 -0.765625q-0.515625 -0.40625 -1.46875 -0.40625q-0.8125 0 -2.484375 0.5q-0.1875 0.0625 -0.265625 0.0625q-0.109375 0 -0.1875 -0.078125q-0.078125 -0.078125 -0.078125 -0.203125q0 -0.15625 0.125 -0.28125q0.125 -0.125 0.9375 -0.328125q1.4375 -0.375 2.125 -0.375q1.1875 0 1.78125 0.53125q0.609375 0.515625 0.609375 1.171875q0 0.21875 -0.046875 0.421875l-0.984375 4.609375l0.953125 0q0.21875 0 0.296875 0.078125q0.09375 0.0625 0.09375 0.203125q0 0.171875 -0.140625 0.296875q-0.140625 0.125 -0.40625 0.125l-1.640625 0zm0.75 -3.46875q-0.9375 -0.28125 -2.140625 -0.28125q-1.671875 0 -2.6875 0.78125q-0.75 0.578125 -0.75 1.328125q0 0.53125 0.390625 0.875q0.40625 0.34375 1.21875 0.34375q0.90625 0 1.765625 -0.34375q0.859375 -0.359375 1.859375 -1.171875l0.34375 -1.53125zm11.38295 -3.265625q0.046875 -0.234375 0.171875 -0.34375q0.125 -0.109375 0.265625 -0.109375q0.125 0 0.203125 0.078125q0.09375 0.078125 0.09375 0.171875q0 0.078125 -0.046875 0.21875l-0.25 1.203125q-0.046875 0.25 -0.171875 0.359375q-0.125 0.09375 -0.28125 0.09375q-0.109375 0 -0.1875 -0.0625q-0.078125 -0.078125 -0.078125 -0.171875l0 -0.15625q0.015625 -0.0625 0.015625 -0.109375q0 -0.453125 -0.40625 -0.734375q-0.578125 -0.4375 -1.640625 -0.4375q-1.28125 0 -2.046875 0.546875q-0.5625 0.40625 -0.5625 0.859375q0 0.453125 0.5 0.734375q0.34375 0.203125 1.5 0.328125q1.15625 0.125 1.65625 0.296875q0.703125 0.21875 1.03125 0.65625q0.34375 0.421875 0.34375 0.953125q0 0.609375 -0.453125 1.234375q-0.4375 0.609375 -1.359375 1.015625q-0.921875 0.390625 -2.078125 0.390625q-0.828125 0 -1.453125 -0.21875q-0.625 -0.21875 -1.0625 -0.625q-0.078125 0.34375 -0.171875 0.4375q-0.140625 0.125 -0.3125 0.125q-0.109375 0 -0.1875 -0.078125q-0.078125 -0.078125 -0.078125 -0.171875q0 -0.078125 0.015625 -0.21875l0.3125 -1.4375q0.046875 -0.25 0.171875 -0.34375q0.125 -0.109375 0.28125 -0.109375q0.125 0 0.203125 0.078125q0.078125 0.078125 0.078125 0.1875q0 0.0625 -0.03125 0.1875q-0.015625 0.125 -0.015625 0.171875q0 0.484375 0.484375 0.84375q0.640625 0.46875 1.890625 0.46875q1.484375 0 2.265625 -0.59375q0.78125 -0.59375 0.78125 -1.171875q0 -0.3125 -0.234375 -0.609375q-0.21875 -0.3125 -0.6875 -0.484375q-0.46875 -0.1875 -1.53125 -0.296875q-1.046875 -0.109375 -1.53125 -0.28125q-0.484375 -0.171875 -0.765625 -0.515625q-0.265625 -0.34375 -0.265625 -0.796875q0 -0.515625 0.34375 -1.015625q0.359375 -0.515625 1.1875 -0.875q0.84375 -0.375 1.875 -0.375q0.734375 0 1.28125 0.171875q0.546875 0.171875 0.9375 0.53125zm10.398575 0q0.046875 -0.234375 0.171875 -0.34375q0.125 -0.109375 0.265625 -0.109375q0.125 0 0.203125 0.078125q0.09375 0.078125 0.09375 0.171875q0 0.078125 -0.046875 0.21875l-0.25 1.203125q-0.046875 0.25 -0.171875 0.359375q-0.125 0.09375 -0.28125 0.09375q-0.109375 0 -0.1875 -0.0625q-0.078125 -0.078125 -0.078125 -0.171875l0 -0.15625q0.015625 -0.0625 0.015625 -0.109375q0 -0.453125 -0.40625 -0.734375q-0.578125 -0.4375 -1.640625 -0.4375q-1.28125 0 -2.046875 0.546875q-0.5625 0.40625 -0.5625 0.859375q0 0.453125 0.5 0.734375q0.34375 0.203125 1.5 0.328125q1.15625 0.125 1.65625 0.296875q0.703125 0.21875 1.03125 0.65625q0.34375 0.421875 0.34375 0.953125q0 0.609375 -0.453125 1.234375q-0.4375 0.609375 -1.359375 1.015625q-0.921875 0.390625 -2.078125 0.390625q-0.828125 0 -1.453125 -0.21875q-0.625 -0.21875 -1.0625 -0.625q-0.078125 0.34375 -0.171875 0.4375q-0.140625 0.125 -0.3125 0.125q-0.109375 0 -0.1875 -0.078125q-0.078125 -0.078125 -0.078125 -0.171875q0 -0.078125 0.015625 -0.21875l0.3125 -1.4375q0.046875 -0.25 0.171875 -0.34375q0.125 -0.109375 0.28125 -0.109375q0.125 0 0.203125 0.078125q0.078125 0.078125 0.078125 0.1875q0 0.0625 -0.03125 0.1875q-0.015625 0.125 -0.015625 0.171875q0 0.484375 0.484375 0.84375q0.640625 0.46875 1.890625 0.46875q1.484375 0 2.265625 -0.59375q0.78125 -0.59375 0.78125 -1.171875q0 -0.3125 -0.234375 -0.609375q-0.21875 -0.3125 -0.6875 -0.484375q-0.46875 -0.1875 -1.53125 -0.296875q-1.046875 -0.109375 -1.53125 -0.28125q-0.484375 -0.171875 -0.765625 -0.515625q-0.265625 -0.34375 -0.265625 -0.796875q0 -0.515625 0.34375 -1.015625q0.359375 -0.515625 1.1875 -0.875q0.84375 -0.375 1.875 -0.375q0.734375 0 1.28125 0.171875q0.546875 0.171875 0.9375 0.53125z" fill-rule="nonzero"></path><path fill="#d9d9d9" d="m29.345255 210.3517l0 0c0 -12.985214 10.526594 -23.51181 23.511812 -23.51181l90.45668 0l0 0c6.235733 0 12.216049 2.4771423 16.625366 6.8864594c4.409317 4.409317 6.8864594 10.389633 6.8864594 16.62535l0 0l0 0c0 12.985214 -10.526611 23.51181 -23.511826 23.51181l-90.45668 0c-12.985218 0 -23.511812 -10.526596 -23.511812 -23.51181z" fill-rule="nonzero"></path><path stroke="#000000" stroke-width="1.0" stroke-linejoin="round" stroke-linecap="butt" d="m29.345255 210.3517l0 0c0 -12.985214 10.526594 -23.51181 23.511812 -23.51181l90.45668 0l0 0c6.235733 0 12.216049 2.4771423 16.625366 6.8864594c4.409317 4.409317 6.8864594 10.389633 6.8864594 16.62535l0 0l0 0c0 12.985214 -10.526611 23.51181 -23.511826 23.51181l-90.45668 0c-12.985218 0 -23.511812 -10.526596 -23.511812 -23.51181z" fill-rule="nonzero"></path><path fill="#000000" d="m74.94918 201.28857l-4.625 0l0 4.0l0.9375 0q0.25 0 0.34375 0.109375q0.109375 0.09375 0.109375 0.25q0 0.140625 -0.109375 0.25q-0.09375 0.09375 -0.34375 0.09375l-2.421875 0q-0.25 0 -0.359375 -0.09375q-0.109375 -0.109375 -0.109375 -0.25q0 -0.15625 0.109375 -0.25q0.109375 -0.109375 0.359375 -0.109375l0.78125 0l0 -8.3125l-0.4375 0q-0.25 0 -0.359375 -0.09375q-0.109375 -0.09375 -0.109375 -0.25q0 -0.15625 0.109375 -0.25q0.109375 -0.109375 0.359375 -0.109375l2.078125 0q0.25 0 0.34375 0.109375q0.109375 0.09375 0.109375 0.25q0 0.15625 -0.109375 0.25q-0.09375 0.09375 -0.34375 0.09375l-0.9375 0l0 3.625l4.625 0l0 -3.625l-0.9375 0q-0.25 0 -0.359375 -0.09375q-0.109375 -0.09375 -0.109375 -0.25q0 -0.15625 0.109375 -0.25q0.109375 -0.109375 0.359375 -0.109375l2.0625 0q0.265625 0 0.375 0.109375q0.109375 0.09375 0.109375 0.25q0 0.15625 -0.109375 0.25q-0.109375 0.09375 -0.375 0.09375l-0.421875 0l0 8.3125l0.78125 0q0.25 0 0.359375 0.109375q0.109375 0.09375 0.109375 0.25q0 0.140625 -0.109375 0.25q-0.109375 0.09375 -0.359375 0.09375l-2.421875 0q-0.25 0 -0.359375 -0.09375q-0.109375 -0.109375 -0.109375 -0.25q0 -0.15625 0.109375 -0.25q0.109375 -0.109375 0.359375 -0.109375l0.9375 0l0 -4.0zm8.186035 -4.3125l0 8.3125l2.390625 0q0.25 0 0.359375 0.109375q0.109375 0.09375 0.109375 0.25q0 0.140625 -0.109375 0.25q-0.109375 0.09375 -0.359375 0.09375l-5.484375 0q-0.25 0 -0.359375 -0.09375q-0.09375 -0.109375 -0.09375 -0.25q0 -0.15625 0.09375 -0.25q0.109375 -0.109375 0.359375 -0.109375l2.390625 0l0 -8.3125l-2.390625 0q-0.25 0 -0.359375 -0.09375q-0.09375 -0.09375 -0.09375 -0.25q0 -0.15625 0.09375 -0.25q0.109375 -0.109375 0.359375 -0.109375l5.484375 0q0.25 0 0.359375 0.109375q0.109375 0.09375 0.109375 0.25q0 0.15625 -0.109375 0.25q-0.109375 0.09375 -0.359375 0.09375l-2.390625 0zm12.57666 0l0 6.15625q0 1.28125 -0.953125 2.21875q-0.9375 0.921875 -2.25 0.921875q-0.796875 0 -1.5625 -0.359375q-0.75 -0.375 -1.640625 -1.1875l0 -2.578125q0 -0.25 0.09375 -0.359375q0.109375 -0.109375 0.25 -0.109375q0.15625 0 0.25 0.109375q0.109375 0.109375 0.109375 0.359375l-0.015625 2.234375q0.640625 0.59375 1.265625 0.890625q0.640625 0.296875 1.25 0.296875q0.671875 0 1.28125 -0.328125q0.453125 -0.25 0.828125 -0.84375q0.390625 -0.59375 0.390625 -1.265625l0 -6.15625l-2.734375 0q-0.25 0 -0.359375 -0.09375q-0.109375 -0.09375 -0.109375 -0.25q0 -0.15625 0.109375 -0.25q0.109375 -0.109375 0.359375 -0.109375l5.09375 0q0.25 0 0.359375 0.109375q0.109375 0.09375 0.109375 0.25q0 0.15625 -0.109375 0.25q-0.109375 0.09375 -0.359375 0.09375l-1.65625 0zm9.967285 0l0 -0.234375q0 -0.25 0.09375 -0.359375q0.09375 -0.109375 0.25 -0.109375q0.171875 0 0.265625 0.109375q0.09375 0.109375 0.09375 0.359375l0 1.78125q0 0.25 -0.09375 0.359375q-0.09375 0.109375 -0.265625 0.109375q-0.140625 0 -0.234375 -0.09375q-0.09375 -0.109375 -0.109375 -0.328125q-0.046875 -0.703125 -0.71875 -1.25q-0.671875 -0.5625 -1.765625 -0.5625q-1.15625 0 -1.84375 0.59375q-0.671875 0.59375 -0.671875 1.390625q0 0.421875 0.1875 0.765625q0.1875 0.328125 0.5 0.546875q0.328125 0.203125 0.71875 0.34375q0.40625 0.125 1.25 0.265625q1.421875 0.234375 1.953125 0.46875q0.71875 0.328125 1.09375 0.90625q0.375 0.5625 0.375 1.34375q0 1.203125 -0.96875 2.046875q-0.953125 0.84375 -2.5625 0.84375q-1.8125 0 -2.90625 -1.140625l0 0.390625q0 0.25 -0.09375 0.359375q-0.09375 0.109375 -0.25 0.109375q-0.15625 0 -0.265625 -0.109375q-0.09375 -0.109375 -0.09375 -0.359375l0 -1.921875q0 -0.25 0.09375 -0.359375q0.109375 -0.109375 0.265625 -0.109375q0.140625 0 0.234375 0.09375q0.09375 0.09375 0.109375 0.328125q0.046875 0.765625 0.8125 1.390625q0.78125 0.625 2.09375 0.625q1.3125 0 2.0625 -0.65625q0.765625 -0.65625 0.765625 -1.546875q0 -0.546875 -0.296875 -0.96875q-0.28125 -0.4375 -0.859375 -0.6875q-0.390625 -0.171875 -1.65625 -0.390625q-1.734375 -0.296875 -2.5 -0.890625q-0.765625 -0.59375 -0.765625 -1.703125q0 -1.09375 0.875 -1.875q0.875 -0.796875 2.3125 -0.796875q1.46875 0 2.515625 0.921875zm11.967285 4.1875q0 1.390625 -0.5625 2.59375q-0.5625 1.1875 -1.5625 1.859375q-0.984375 0.65625 -2.125 0.65625q-1.6875 0 -2.96875 -1.4375q-1.28125 -1.4375 -1.28125 -3.671875q0 -2.25 1.28125 -3.671875q1.28125 -1.4375 2.96875 -1.4375q1.140625 0 2.125 0.671875q0.984375 0.65625 1.546875 1.84375q0.578125 1.1875 0.578125 2.59375zm-0.703125 0q0 -1.703125 -0.984375 -3.046875q-0.984375 -1.359375 -2.5625 -1.359375q-1.46875 0 -2.515625 1.296875q-1.03125 1.28125 -1.03125 3.109375q0 1.9375 1.09375 3.171875q1.09375 1.234375 2.453125 1.234375q1.578125 0 2.5625 -1.34375q0.984375 -1.359375 0.984375 -3.0625zm10.061035 4.828125l-0.890625 0l-5.140625 -8.6875l0 7.984375l1.28125 0q0.265625 0 0.359375 0.109375q0.109375 0.09375 0.109375 0.25q0 0.140625 -0.109375 0.25q-0.09375 0.09375 -0.359375 0.09375l-2.5625 0q-0.25 0 -0.359375 -0.09375q-0.109375 -0.109375 -0.109375 -0.25q0 -0.15625 0.109375 -0.25q0.109375 -0.109375 0.359375 -0.109375l0.578125 0l0 -8.3125l-0.9375 0q-0.25 0 -0.359375 -0.09375q-0.109375 -0.09375 -0.109375 -0.25q0 -0.15625 0.109375 -0.25q0.109375 -0.109375 0.359375 -0.109375l1.828125 0l5.140625 8.71875l0 -8.015625l-1.28125 0q-0.25 0 -0.359375 -0.09375q-0.109375 -0.09375 -0.109375 -0.25q0 -0.15625 0.109375 -0.25q0.109375 -0.109375 0.359375 -0.109375l2.578125 0q0.25 0 0.359375 0.109375q0.10938263 0.09375 0.10938263 0.25q0 0.15625 -0.10938263 0.25q-0.109375 0.09375 -0.359375 0.09375l-0.59375 0l0 9.015625z" fill-rule="nonzero"></path><path fill="#000000" d="m86.197716 226.9917l-0.890625 0l-5.140625 -8.6875l0 7.984375l1.28125 0q0.265625 0 0.359375 0.109375q0.109375 0.09375 0.109375 0.25q0 0.140625 -0.109375 0.25q-0.09375 0.09375 -0.359375 0.09375l-2.5625 0q-0.25 0 -0.359375 -0.09375q-0.109375 -0.109375 -0.109375 -0.25q0 -0.15625 0.109375 -0.25q0.109375 -0.109375 0.359375 -0.109375l0.578125 0l0 -8.3125l-0.9375 0q-0.25 0 -0.359375 -0.09375q-0.109375 -0.09375 -0.109375 -0.25q0 -0.15625 0.109375 -0.25q0.109375 -0.109375 0.359375 -0.109375l1.828125 0l5.140625 8.71875l0 -8.015625l-1.28125 0q-0.25 0 -0.359375 -0.09375q-0.109375 -0.09375 -0.109375 -0.25q0 -0.15625 0.109375 -0.25q0.109375 -0.109375 0.359375 -0.109375l2.578125 0q0.25 0 0.359375 0.109375q0.109375 0.09375 0.109375 0.25q0 0.15625 -0.109375 0.25q-0.109375 0.09375 -0.359375 0.09375l-0.59375 0l0 9.015625zm10.686035 -3.578125q0 1.59375 -1.140625 2.734375q-1.140625 1.125 -2.75 1.125q-1.625 0 -2.765625 -1.140625q-1.140625 -1.140625 -1.140625 -2.71875q0 -1.59375 1.140625 -2.71875q1.140625 -1.140625 2.765625 -1.140625q1.609375 0 2.75 1.125q1.140625 1.125 1.140625 2.734375zm-0.703125 0q0 -1.3125 -0.9375 -2.234375q-0.9375 -0.921875 -2.265625 -0.921875q-1.328125 0 -2.265625 0.9375q-0.921875 0.921875 -0.921875 2.21875q0 1.296875 0.921875 2.234375q0.9375 0.921875 2.265625 0.921875q1.328125 0 2.265625 -0.921875q0.9375 -0.9375 0.9375 -2.234375zm10.42041 -6.84375l0 9.71875l0.9375 0q0.25 0 0.359375 0.109375q0.109375 0.09375 0.109375 0.25q0 0.140625 -0.109375 0.25q-0.109375 0.09375 -0.359375 0.09375l-1.640625 0l0 -1.390625q-1.21875 1.671875 -3.078125 1.671875q-0.953125 0 -1.828125 -0.5q-0.859375 -0.515625 -1.359375 -1.4375q-0.5 -0.9375 -0.5 -1.921875q0 -1.0 0.5 -1.921875q0.5 -0.921875 1.359375 -1.421875q0.875 -0.515625 1.828125 -0.515625q1.828125 0 3.078125 1.65625l0 -3.9375l-0.9375 0q-0.25 0 -0.359375 -0.09375q-0.109375 -0.09375 -0.109375 -0.25q0 -0.15625 0.109375 -0.25q0.109375 -0.109375 0.359375 -0.109375l1.640625 0zm-0.703125 6.84375q0 -1.328125 -0.90625 -2.234375q-0.890625 -0.921875 -2.125 -0.921875q-1.25 0 -2.140625 0.921875q-0.890625 0.90625 -0.890625 2.234375q0 1.3125 0.890625 2.234375q0.890625 0.921875 2.140625 0.921875q1.234375 0 2.125 -0.921875q0.90625 -0.921875 0.90625 -2.234375zm11.26416 0.15625l-7.109375 0q0.1875 1.34375 1.140625 2.171875q0.953125 0.828125 2.34375 0.828125q0.78125 0 1.640625 -0.25q0.859375 -0.265625 1.390625 -0.6875q0.15625 -0.125 0.28125 -0.125q0.125 0 0.21875 0.109375q0.109375 0.09375 0.109375 0.234375q0 0.140625 -0.140625 0.28125q-0.390625 0.40625 -1.40625 0.78125q-1.015625 0.359375 -2.09375 0.359375q-1.78125 0 -2.984375 -1.171875q-1.203125 -1.1875 -1.203125 -2.859375q0 -1.515625 1.125 -2.59375q1.125 -1.09375 2.78125 -1.09375q1.71875 0 2.8125 1.125q1.109375 1.109375 1.09375 2.890625zm-0.703125 -0.71875q-0.21875 -1.140625 -1.109375 -1.859375q-0.875 -0.734375 -2.09375 -0.734375q-1.21875 0 -2.09375 0.71875q-0.875 0.71875 -1.09375 1.875l6.390625 0z" fill-rule="nonzero"></path><path fill="#000000" fill-opacity="0.0" d="m98.085434 151.94073l0 17.449524l0.06299591 0l0 17.44812" fill-rule="nonzero"></path><path stroke="#000000" stroke-width="1.0" stroke-linejoin="round" stroke-linecap="butt" d="m98.085434 151.94073l0 17.449524l0.06299591 0l0 14.021042" fill-rule="evenodd"></path><path fill="#000000" stroke="#000000" stroke-width="1.0" stroke-linecap="butt" d="m98.14843 183.41129l-1.124588 -1.1245728l1.124588 3.0897675l1.1245804 -3.0897675z" fill-rule="evenodd"></path><path fill="#000000" fill-opacity="0.0" d="m97.19144 61.553772l110.48819 0l0 36.031494l-110.48819 0z" fill-rule="nonzero"></path><path fill="#000000" d="m109.45706 77.853775l0 1.34375q1.03125 -0.9375 1.546875 -1.203125q0.53125 -0.265625 0.96875 -0.265625q0.46875 0 0.875 0.328125q0.421875 0.3125 0.421875 0.46875q0 0.125 -0.09375 0.203125q-0.078125 0.078125 -0.1875 0.078125q-0.0625 0 -0.109375 -0.015625q-0.046875 -0.03125 -0.171875 -0.140625q-0.21875 -0.234375 -0.390625 -0.3125q-0.15625 -0.078125 -0.3125 -0.078125q-0.359375 0 -0.859375 0.28125q-0.484375 0.28125 -1.6875 1.359375l0 2.921875l2.359375 0q0.203125 0 0.28125 0.078125q0.078125 0.0625 0.078125 0.1875q0 0.109375 -0.078125 0.1875q-0.078125 0.078125 -0.28125 0.078125l-4.1875 0q-0.1875 0 -0.28125 -0.0625q-0.078125 -0.078125 -0.078125 -0.203125q0 -0.109375 0.078125 -0.171875q0.09375 -0.078125 0.28125 -0.078125l1.296875 0l0 -4.4375l-0.984375 0q-0.1875 0 -0.28125 -0.078125q-0.078125 -0.078125 -0.078125 -0.203125q0 -0.109375 0.078125 -0.1875q0.078125 -0.078125 0.28125 -0.078125l1.515625 0zm11.316895 2.875l-5.421875 0q0.125 1.03125 0.859375 1.671875q0.734375 0.625 1.796875 0.625q0.59375 0 1.25 -0.1875q0.65625 -0.203125 1.0625 -0.53125q0.125 -0.09375 0.21875 -0.09375q0.09375 0 0.171875 0.078125q0.078125 0.078125 0.078125 0.1875q0 0.109375 -0.09375 0.21875q-0.3125 0.3125 -1.09375 0.59375q-0.765625 0.265625 -1.59375 0.265625q-1.375 0 -2.296875 -0.890625q-0.90625 -0.90625 -0.90625 -2.171875q0 -1.171875 0.859375 -2.0q0.859375 -0.828125 2.125 -0.828125q1.3125 0 2.15625 0.859375q0.84375 0.84375 0.828125 2.203125zm-0.53125 -0.53125q-0.15625 -0.890625 -0.84375 -1.4375q-0.671875 -0.546875 -1.609375 -0.546875q-0.921875 0 -1.59375 0.546875q-0.671875 0.53125 -0.84375 1.4375l4.890625 0zm5.0981445 -1.796875l0 4.421875l2.34375 0q0.1875 0 0.265625 0.078125q0.09375 0.0625 0.09375 0.1875q0 0.109375 -0.09375 0.1875q-0.078125 0.078125 -0.265625 0.078125l-4.171875 0q-0.1875 0 -0.28125 -0.078125q-0.078125 -0.078125 -0.078125 -0.1875q0 -0.125 0.078125 -0.1875q0.09375 -0.078125 0.28125 -0.078125l1.296875 0l0 -4.421875l-1.15625 0q-0.203125 0 -0.28125 -0.078125q-0.078125 -0.078125 -0.078125 -0.203125q0 -0.109375 0.078125 -0.1875q0.078125 -0.078125 0.28125 -0.078125l1.15625 0l0 -0.796875q0 -0.671875 0.53125 -1.171875q0.546875 -0.5 1.453125 -0.5q0.75 0 1.609375 0.140625q0.328125 0.046875 0.390625 0.125q0.078125 0.0625 0.078125 0.1875q0 0.109375 -0.078125 0.1875q-0.078125 0.0625 -0.203125 0.0625q-0.0625 0 -0.171875 -0.015625q-0.96875 -0.140625 -1.625 -0.140625q-0.703125 0 -1.078125 0.34375q-0.375 0.34375 -0.375 0.78125l0 0.796875l2.5 0q0.1875 0 0.265625 0.078125q0.09375 0.078125 0.09375 0.203125q0 0.109375 -0.09375 0.1875q-0.078125 0.078125 -0.265625 0.078125l-2.5 0zm8.42627 -3.015625l0 7.4375l2.09375 0q0.203125 0 0.28125 0.078125q0.078125 0.0625 0.078125 0.1875q0 0.109375 -0.078125 0.1875q-0.078125 0.078125 -0.28125 0.078125l-4.71875 0q-0.1875 0 -0.28125 -0.078125q-0.078125 -0.078125 -0.078125 -0.1875q0 -0.125 0.078125 -0.1875q0.09375 -0.078125 0.28125 -0.078125l2.09375 0l0 -6.890625l-1.546875 0q-0.1875 0 -0.28125 -0.078125q-0.078125 -0.078125 -0.078125 -0.203125q0 -0.109375 0.078125 -0.1875q0.09375 -0.078125 0.28125 -0.078125l2.078125 0zm10.410645 5.34375l-5.421875 0q0.125 1.03125 0.859375 1.671875q0.734375 0.625 1.796875 0.625q0.59375 0 1.25 -0.1875q0.65625 -0.203125 1.0625 -0.53125q0.125 -0.09375 0.21875 -0.09375q0.09375 0 0.171875 0.078125q0.078125 0.078125 0.078125 0.1875q0 0.109375 -0.09375 0.21875q-0.3125 0.3125 -1.09375 0.59375q-0.765625 0.265625 -1.59375 0.265625q-1.375 0 -2.296875 -0.890625q-0.90625 -0.90625 -0.90625 -2.171875q0 -1.171875 0.859375 -2.0q0.859375 -0.828125 2.125 -0.828125q1.3125 0 2.15625 0.859375q0.84375 0.84375 0.828125 2.203125zm-0.53125 -0.53125q-0.15625 -0.890625 -0.84375 -1.4375q-0.671875 -0.546875 -1.609375 -0.546875q-0.921875 0 -1.59375 0.546875q-0.671875 0.53125 -0.84375 1.4375l4.890625 0zm7.6762695 -1.796875l0 -0.1875q0 -0.1875 0.078125 -0.265625q0.078125 -0.09375 0.1875 -0.09375q0.125 0 0.203125 0.09375q0.078125 0.078125 0.078125 0.265625l0 1.21875q-0.015625 0.1875 -0.09375 0.28125q-0.0625 0.078125 -0.1875 0.078125q-0.109375 0 -0.1875 -0.078125q-0.0625 -0.078125 -0.078125 -0.25q-0.03125 -0.4375 -0.59375 -0.84375q-0.546875 -0.40625 -1.5 -0.40625q-1.1875 0 -1.796875 0.75q-0.609375 0.734375 -0.609375 1.6875q0 1.03125 0.671875 1.703125q0.6875 0.671875 1.765625 0.671875q0.609375 0 1.25 -0.21875q0.65625 -0.234375 1.171875 -0.734375q0.140625 -0.140625 0.234375 -0.140625q0.109375 0 0.171875 0.078125q0.078125 0.078125 0.078125 0.1875q0 0.265625 -0.640625 0.6875q-1.03125 0.671875 -2.296875 0.671875q-1.28125 0 -2.125 -0.8125q-0.828125 -0.828125 -0.828125 -2.09375q0 -1.28125 0.84375 -2.125q0.859375 -0.859375 2.140625 -0.859375q1.234375 0 2.0625 0.734375zm4.4887695 -0.546875l2.890625 0q0.1875 0 0.265625 0.078125q0.09375 0.078125 0.09375 0.203125q0 0.109375 -0.09375 0.1875q-0.078125 0.078125 -0.265625 0.078125l-2.890625 0l0 3.546875q0 0.453125 0.359375 0.765625q0.375 0.3125 1.09375 0.3125q0.546875 0 1.171875 -0.15625q0.625 -0.15625 0.96875 -0.359375q0.125 -0.09375 0.21875 -0.09375q0.09375 0 0.171875 0.078125q0.078125 0.078125 0.078125 0.1875q0 0.09375 -0.078125 0.1875q-0.203125 0.203125 -1.0 0.453125q-0.78125 0.234375 -1.5 0.234375q-0.921875 0 -1.484375 -0.4375q-0.546875 -0.4375 -0.546875 -1.171875l0 -3.546875l-0.984375 0q-0.1875 0 -0.28125 -0.078125q-0.078125 -0.078125 -0.078125 -0.203125q0 -0.109375 0.078125 -0.1875q0.09375 -0.078125 0.28125 -0.078125l0.984375 0l0 -1.578125q0 -0.1875 0.078125 -0.265625q0.078125 -0.078125 0.1875 -0.078125q0.125 0 0.203125 0.078125q0.078125 0.078125 0.078125 0.265625l0 1.578125zm9.160645 -2.734375l0 1.375l-0.796875 0l0 -1.375l0.796875 0zm0.015625 2.734375l0 4.96875l2.09375 0q0.1875 0 0.265625 0.078125q0.09375 0.0625 0.09375 0.1875q0 0.109375 -0.09375 0.1875q-0.078125 0.078125 -0.265625 0.078125l-4.71875 0q-0.203125 0 -0.28125 -0.078125q-0.078125 -0.078125 -0.078125 -0.1875q0 -0.125 0.078125 -0.1875q0.078125 -0.078125 0.28125 -0.078125l2.09375 0l0 -4.421875l-1.5625 0q-0.1875 0 -0.28125 -0.078125q-0.078125 -0.078125 -0.078125 -0.1875q0 -0.125 0.078125 -0.203125q0.078125 -0.078125 0.28125 -0.078125l2.09375 0zm10.48877 2.765625q0 1.21875 -0.875 2.078125q-0.859375 0.859375 -2.09375 0.859375q-1.25 0 -2.125 -0.859375q-0.859375 -0.875 -0.859375 -2.078125q0 -1.21875 0.859375 -2.078125q0.875 -0.875 2.125 -0.875q1.234375 0 2.09375 0.859375q0.875 0.859375 0.875 2.09375zm-0.53125 0q0 -1.0 -0.71875 -1.703125q-0.71875 -0.703125 -1.734375 -0.703125q-1.015625 0 -1.734375 0.703125q-0.703125 0.703125 -0.703125 1.703125q0 0.984375 0.703125 1.703125q0.71875 0.703125 1.734375 0.703125q1.015625 0 1.734375 -0.703125q0.71875 -0.703125 0.71875 -1.703125zm3.6293945 -2.765625l0 0.8125q0.5625 -0.5625 1.015625 -0.78125q0.453125 -0.21875 1.015625 -0.21875q0.609375 0 1.109375 0.265625q0.359375 0.1875 0.640625 0.625q0.296875 0.4375 0.296875 0.90625l0 3.359375l0.453125 0q0.1875 0 0.265625 0.078125q0.078125 0.0625 0.078125 0.1875q0 0.109375 -0.078125 0.1875q-0.078125 0.078125 -0.265625 0.078125l-1.4375 0q-0.1875 0 -0.28125 -0.078125q-0.078125 -0.078125 -0.078125 -0.1875q0 -0.125 0.078125 -0.1875q0.09375 -0.078125 0.28125 -0.078125l0.453125 0l0 -3.265625q0 -0.578125 -0.421875 -0.953125q-0.40625 -0.390625 -1.09375 -0.390625q-0.53125 0 -0.921875 0.21875q-0.390625 0.203125 -1.109375 1.046875l0 3.34375l0.609375 0q0.1875 0 0.265625 0.078125q0.09375 0.0625 0.09375 0.1875q0 0.109375 -0.09375 0.1875q-0.078125 0.078125 -0.265625 0.078125l-1.734375 0q-0.203125 0 -0.28125 -0.078125q-0.078125 -0.078125 -0.078125 -0.1875q0 -0.125 0.078125 -0.1875q0.078125 -0.078125 0.28125 -0.078125l0.59375 0l0 -4.421875l-0.453125 0q-0.1875 0 -0.265625 -0.078125q-0.078125 -0.078125 -0.078125 -0.203125q0 -0.109375 0.078125 -0.1875q0.078125 -0.078125 0.265625 -0.078125l0.984375 0z" fill-rule="nonzero"></path><path fill="#000000" fill-opacity="0.0" d="m97.190155 149.06953l140.7874 0l0 36.031494l-140.7874 0z" fill-rule="nonzero"></path><path fill="#000000" d="m110.36203 162.63516l0 1.375l-0.796875 0l0 -1.375l0.796875 0zm0.015625 2.734375l0 4.96875l2.09375 0q0.1875 0 0.265625 0.078125q0.09375 0.0625 0.09375 0.1875q0 0.109375 -0.09375 0.1875q-0.078125 0.078125 -0.265625 0.078125l-4.71875 0q-0.203125 0 -0.28125 -0.078125q-0.078125 -0.078125 -0.078125 -0.1875q0 -0.125 0.078125 -0.1875q0.078125 -0.078125 0.28125 -0.078125l2.09375 0l0 -4.421875l-1.5625 0q-0.1875 0 -0.28125 -0.078125q-0.078125 -0.078125 -0.078125 -0.1875q0 -0.125 0.078125 -0.203125q0.078125 -0.078125 0.28125 -0.078125l2.09375 0zm5.7856445 0l0 0.8125q0.5625 -0.5625 1.015625 -0.78125q0.453125 -0.21875 1.015625 -0.21875q0.609375 0 1.109375 0.265625q0.359375 0.1875 0.640625 0.625q0.296875 0.4375 0.296875 0.90625l0 3.359375l0.453125 0q0.1875 0 0.265625 0.078125q0.078125 0.0625 0.078125 0.1875q0 0.109375 -0.078125 0.1875q-0.078125 0.078125 -0.265625 0.078125l-1.4375 0q-0.1875 0 -0.28125 -0.078125q-0.078125 -0.078125 -0.078125 -0.1875q0 -0.125 0.078125 -0.1875q0.09375 -0.078125 0.28125 -0.078125l0.453125 0l0 -3.265625q0 -0.578125 -0.421875 -0.953125q-0.40625 -0.390625 -1.09375 -0.390625q-0.53125 0 -0.921875 0.21875q-0.390625 0.203125 -1.109375 1.046875l0 3.34375l0.609375 0q0.1875 0 0.265625 0.078125q0.09375 0.0625 0.09375 0.1875q0 0.109375 -0.09375 0.1875q-0.078125 0.078125 -0.265625 0.078125l-1.734375 0q-0.203125 0 -0.28125 -0.078125q-0.078125 -0.078125 -0.078125 -0.1875q0 -0.125 0.078125 -0.1875q0.078125 -0.078125 0.28125 -0.078125l0.59375 0l0 -4.421875l-0.453125 0q-0.1875 0 -0.265625 -0.078125q-0.078125 -0.078125 -0.078125 -0.203125q0 -0.109375 0.078125 -0.1875q0.078125 -0.078125 0.265625 -0.078125l0.984375 0zm11.285645 0.359375q0 -0.1875 0.078125 -0.265625q0.078125 -0.09375 0.1875 -0.09375q0.125 0 0.203125 0.09375q0.078125 0.078125 0.078125 0.265625l0 0.921875q0 0.1875 -0.078125 0.28125q-0.078125 0.078125 -0.203125 0.078125q-0.09375 0 -0.171875 -0.0625q-0.078125 -0.078125 -0.09375 -0.25q-0.03125 -0.375 -0.390625 -0.625q-0.515625 -0.34375 -1.375 -0.34375q-0.890625 0 -1.390625 0.359375q-0.375 0.265625 -0.375 0.609375q0 0.375 0.453125 0.625q0.296875 0.1875 1.140625 0.28125q1.125 0.109375 1.546875 0.265625q0.625 0.21875 0.921875 0.625q0.296875 0.390625 0.296875 0.84375q0 0.6875 -0.65625 1.21875q-0.640625 0.515625 -1.90625 0.515625q-1.265625 0 -2.078125 -0.640625q0 0.21875 -0.03125 0.28125q-0.015625 0.0625 -0.09375 0.109375q-0.0625 0.046875 -0.140625 0.046875q-0.109375 0 -0.1875 -0.078125q-0.078125 -0.09375 -0.078125 -0.28125l0 -1.09375q0 -0.1875 0.0625 -0.265625q0.078125 -0.09375 0.203125 -0.09375q0.109375 0 0.1875 0.078125q0.09375 0.078125 0.09375 0.21875q0 0.296875 0.140625 0.484375q0.21875 0.3125 0.703125 0.515625q0.484375 0.1875 1.1875 0.1875q1.046875 0 1.546875 -0.375q0.515625 -0.390625 0.515625 -0.828125q0 -0.5 -0.515625 -0.796875q-0.515625 -0.296875 -1.515625 -0.390625q-0.984375 -0.109375 -1.421875 -0.265625q-0.4375 -0.171875 -0.671875 -0.5q-0.234375 -0.328125 -0.234375 -0.71875q0 -0.671875 0.671875 -1.078125q0.671875 -0.40625 1.59375 -0.40625q1.109375 0 1.796875 0.546875zm4.9575195 -0.359375l2.890625 0q0.1875 0 0.265625 0.078125q0.09375 0.078125 0.09375 0.203125q0 0.109375 -0.09375 0.1875q-0.078125 0.078125 -0.265625 0.078125l-2.890625 0l0 3.546875q0 0.453125 0.359375 0.765625q0.375 0.3125 1.09375 0.3125q0.546875 0 1.171875 -0.15625q0.625 -0.15625 0.96875 -0.359375q0.125 -0.09375 0.21875 -0.09375q0.09375 0 0.171875 0.078125q0.078125 0.078125 0.078125 0.1875q0 0.09375 -0.078125 0.1875q-0.203125 0.203125 -1.0 0.453125q-0.78125 0.234375 -1.5 0.234375q-0.921875 0 -1.484375 -0.4375q-0.546875 -0.4375 -0.546875 -1.171875l0 -3.546875l-0.984375 0q-0.1875 0 -0.28125 -0.078125q-0.078125 -0.078125 -0.078125 -0.203125q0 -0.109375 0.078125 -0.1875q0.09375 -0.078125 0.28125 -0.078125l0.984375 0l0 -1.578125q0 -0.1875 0.078125 -0.265625q0.078125 -0.078125 0.1875 -0.078125q0.125 0 0.203125 0.078125q0.078125 0.078125 0.078125 0.265625l0 1.578125zm10.42627 5.5l0 -0.765625q-1.171875 0.96875 -2.484375 0.96875q-0.953125 0 -1.5 -0.484375q-0.53125 -0.484375 -0.53125 -1.1875q0 -0.765625 0.703125 -1.34375q0.71875 -0.578125 2.078125 -0.578125q0.359375 0 0.796875 0.046875q0.4375 0.046875 0.9375 0.140625l0 -0.859375q0 -0.4375 -0.40625 -0.75q-0.40625 -0.328125 -1.21875 -0.328125q-0.625 0 -1.75 0.359375q-0.203125 0.0625 -0.265625 0.0625q-0.09375 0 -0.171875 -0.078125q-0.0625 -0.078125 -0.0625 -0.1875q0 -0.109375 0.0625 -0.171875q0.078125 -0.09375 0.71875 -0.265625q0.984375 -0.265625 1.484375 -0.265625q1.015625 0 1.578125 0.5q0.5625 0.5 0.5625 1.125l0 3.53125l0.71875 0q0.1875 0 0.265625 0.078125q0.09375 0.0625 0.09375 0.1875q0 0.109375 -0.09375 0.1875q-0.078125 0.078125 -0.265625 0.078125l-1.25 0zm0 -2.65625q-0.375 -0.109375 -0.796875 -0.15625q-0.421875 -0.046875 -0.875 -0.046875q-1.171875 0 -1.828125 0.5q-0.484375 0.375 -0.484375 0.890625q0 0.484375 0.375 0.8125q0.375 0.328125 1.09375 0.328125q0.703125 0 1.296875 -0.265625q0.59375 -0.28125 1.21875 -0.890625l0 -1.171875zm4.5356445 -2.84375l0 0.8125q0.5625 -0.5625 1.015625 -0.78125q0.453125 -0.21875 1.015625 -0.21875q0.609375 0 1.109375 0.265625q0.359375 0.1875 0.640625 0.625q0.296875 0.4375 0.296875 0.90625l0 3.359375l0.453125 0q0.1875 0 0.265625 0.078125q0.078125 0.0625 0.078125 0.1875q0 0.109375 -0.078125 0.1875q-0.078125 0.078125 -0.265625 0.078125l-1.4375 0q-0.1875 0 -0.28125 -0.078125q-0.078125 -0.078125 -0.078125 -0.1875q0 -0.125 0.078125 -0.1875q0.09375 -0.078125 0.28125 -0.078125l0.453125 0l0 -3.265625q0 -0.578125 -0.421875 -0.953125q-0.40625 -0.390625 -1.09375 -0.390625q-0.53125 0 -0.921875 0.21875q-0.390625 0.203125 -1.109375 1.046875l0 3.34375l0.609375 0q0.1875 0 0.265625 0.078125q0.09375 0.0625 0.09375 0.1875q0 0.109375 -0.09375 0.1875q-0.078125 0.078125 -0.265625 0.078125l-1.734375 0q-0.203125 0 -0.28125 -0.078125q-0.078125 -0.078125 -0.078125 -0.1875q0 -0.125 0.078125 -0.1875q0.078125 -0.078125 0.28125 -0.078125l0.59375 0l0 -4.421875l-0.453125 0q-0.1875 0 -0.265625 -0.078125q-0.078125 -0.078125 -0.078125 -0.203125q0 -0.109375 0.078125 -0.1875q0.078125 -0.078125 0.265625 -0.078125l0.984375 0zm8.441895 0l2.890625 0q0.1875 0 0.265625 0.078125q0.09375 0.078125 0.09375 0.203125q0 0.109375 -0.09375 0.1875q-0.078125 0.078125 -0.265625 0.078125l-2.890625 0l0 3.546875q0 0.453125 0.359375 0.765625q0.375 0.3125 1.09375 0.3125q0.546875 0 1.171875 -0.15625q0.625 -0.15625 0.96875 -0.359375q0.125 -0.09375 0.21875 -0.09375q0.09375 0 0.171875 0.078125q0.078125 0.078125 0.078125 0.1875q0 0.09375 -0.078125 0.1875q-0.203125 0.203125 -1.0 0.453125q-0.78125 0.234375 -1.5 0.234375q-0.921875 0 -1.484375 -0.4375q-0.546875 -0.4375 -0.546875 -1.171875l0 -3.546875l-0.984375 0q-0.1875 0 -0.28125 -0.078125q-0.078125 -0.078125 -0.078125 -0.203125q0 -0.109375 0.078125 -0.1875q0.09375 -0.078125 0.28125 -0.078125l0.984375 0l0 -1.578125q0 -0.1875 0.078125 -0.265625q0.078125 -0.078125 0.1875 -0.078125q0.125 0 0.203125 0.078125q0.078125 0.078125 0.078125 0.265625l0 1.578125zm9.160645 -2.734375l0 1.375l-0.796875 0l0 -1.375l0.796875 0zm0.015625 2.734375l0 4.96875l2.09375 0q0.1875 0 0.265625 0.078125q0.09375 0.0625 0.09375 0.1875q0 0.109375 -0.09375 0.1875q-0.078125 0.078125 -0.265625 0.078125l-4.71875 0q-0.203125 0 -0.28125 -0.078125q-0.078125 -0.078125 -0.078125 -0.1875q0 -0.125 0.078125 -0.1875q0.078125 -0.078125 0.28125 -0.078125l2.09375 0l0 -4.421875l-1.5625 0q-0.1875 0 -0.28125 -0.078125q-0.078125 -0.078125 -0.078125 -0.1875q0 -0.125 0.078125 -0.203125q0.078125 -0.078125 0.28125 -0.078125l2.09375 0zm9.05127 5.5l0 -0.765625q-1.171875 0.96875 -2.484375 0.96875q-0.953125 0 -1.5 -0.484375q-0.53125 -0.484375 -0.53125 -1.1875q0 -0.765625 0.703125 -1.34375q0.71875 -0.578125 2.078125 -0.578125q0.359375 0 0.796875 0.046875q0.4375 0.046875 0.9375 0.140625l0 -0.859375q0 -0.4375 -0.40625 -0.75q-0.40625 -0.328125 -1.21875 -0.328125q-0.625 0 -1.75 0.359375q-0.203125 0.0625 -0.265625 0.0625q-0.09375 0 -0.171875 -0.078125q-0.0625 -0.078125 -0.0625 -0.1875q0 -0.109375 0.0625 -0.171875q0.078125 -0.09375 0.71875 -0.265625q0.984375 -0.265625 1.484375 -0.265625q1.015625 0 1.578125 0.5q0.5625 0.5 0.5625 1.125l0 3.53125l0.71875 0q0.1875 0 0.265625 0.078125q0.09375 0.0625 0.09375 0.1875q0 0.109375 -0.09375 0.1875q-0.078125 0.078125 -0.265625 0.078125l-1.25 0zm0 -2.65625q-0.375 -0.109375 -0.796875 -0.15625q-0.421875 -0.046875 -0.875 -0.046875q-1.171875 0 -1.828125 0.5q-0.484375 0.375 -0.484375 0.890625q0 0.484375 0.375 0.8125q0.375 0.328125 1.09375 0.328125q0.703125 0 1.296875 -0.265625q0.59375 -0.28125 1.21875 -0.890625l0 -1.171875zm5.1762695 -2.84375l2.890625 0q0.1875 0 0.265625 0.078125q0.09375 0.078125 0.09375 0.203125q0 0.109375 -0.09375 0.1875q-0.078125 0.078125 -0.265625 0.078125l-2.890625 0l0 3.546875q0 0.453125 0.359375 0.765625q0.375 0.3125 1.09375 0.3125q0.546875 0 1.171875 -0.15625q0.625 -0.15625 0.96875 -0.359375q0.125 -0.09375 0.21875 -0.09375q0.09375 0 0.171875 0.078125q0.078125 0.078125 0.078125 0.1875q0 0.09375 -0.078125 0.1875q-0.203125 0.203125 -1.0 0.453125q-0.78125 0.234375 -1.5 0.234375q-0.921875 0 -1.484375 -0.4375q-0.546875 -0.4375 -0.546875 -1.171875l0 -3.546875l-0.984375 0q-0.1875 0 -0.28125 -0.078125q-0.078125 -0.078125 -0.078125 -0.203125q0 -0.109375 0.078125 -0.1875q0.09375 -0.078125 0.28125 -0.078125l0.984375 0l0 -1.578125q0 -0.1875 0.078125 -0.265625q0.078125 -0.078125 0.1875 -0.078125q0.125 0 0.203125 0.078125q0.078125 0.078125 0.078125 0.265625l0 1.578125zm9.160645 -2.734375l0 1.375l-0.796875 0l0 -1.375l0.796875 0zm0.015625 2.734375l0 4.96875l2.09375 0q0.1875 0 0.265625 0.078125q0.09375 0.0625 0.09375 0.1875q0 0.109375 -0.09375 0.1875q-0.078125 0.078125 -0.265625 0.078125l-4.71875 0q-0.203125 0 -0.28125 -0.078125q-0.078125 -0.078125 -0.078125 -0.1875q0 -0.125 0.078125 -0.1875q0.078125 -0.078125 0.28125 -0.078125l2.09375 0l0 -4.421875l-1.5625 0q-0.1875 0 -0.28125 -0.078125q-0.078125 -0.078125 -0.078125 -0.1875q0 -0.125 0.078125 -0.203125q0.078125 -0.078125 0.28125 -0.078125l2.09375 0zm10.48877 2.765625q0 1.21875 -0.875 2.078125q-0.859375 0.859375 -2.09375 0.859375q-1.25 0 -2.125 -0.859375q-0.859375 -0.875 -0.859375 -2.078125q0 -1.21875 0.859375 -2.078125q0.875 -0.875 2.125 -0.875q1.234375 0 2.09375 0.859375q0.875 0.859375 0.875 2.09375zm-0.53125 0q0 -1.0 -0.71875 -1.703125q-0.71875 -0.703125 -1.734375 -0.703125q-1.015625 0 -1.734375 0.703125q-0.703125 0.703125 -0.703125 1.703125q0 0.984375 0.703125 1.703125q0.71875 0.703125 1.734375 0.703125q1.015625 0 1.734375 -0.703125q0.71875 -0.703125 0.71875 -1.703125zm3.6293945 -2.765625l0 0.8125q0.5625 -0.5625 1.015625 -0.78125q0.453125 -0.21875 1.015625 -0.21875q0.609375 0 1.109375 0.265625q0.359375 0.1875 0.640625 0.625q0.296875 0.4375 0.296875 0.90625l0 3.359375l0.453125 0q0.1875 0 0.265625 0.078125q0.078125 0.0625 0.078125 0.1875q0 0.109375 -0.078125 0.1875q-0.078125 0.078125 -0.265625 0.078125l-1.4375 0q-0.1875 0 -0.28125 -0.078125q-0.078125 -0.078125 -0.078125 -0.1875q0 -0.125 0.078125 -0.1875q0.09375 -0.078125 0.28125 -0.078125l0.453125 0l0 -3.265625q0 -0.578125 -0.421875 -0.953125q-0.40625 -0.390625 -1.09375 -0.390625q-0.53125 0 -0.921875 0.21875q-0.390625 0.203125 -1.109375 1.046875l0 3.34375l0.609375 0q0.1875 0 0.265625 0.078125q0.09375 0.0625 0.09375 0.1875q0 0.109375 -0.09375 0.1875q-0.078125 0.078125 -0.265625 0.078125l-1.734375 0q-0.203125 0 -0.28125 -0.078125q-0.078125 -0.078125 -0.078125 -0.1875q0 -0.125 0.078125 -0.1875q0.078125 -0.078125 0.28125 -0.078125l0.59375 0l0 -4.421875l-0.453125 0q-0.1875 0 -0.265625 -0.078125q-0.078125 -0.078125 -0.078125 -0.203125q0 -0.109375 0.078125 -0.1875q0.078125 -0.078125 0.265625 -0.078125l0.984375 0z" fill-rule="nonzero"></path><path fill="#d9d9d9" d="m29.345255 39.480316l0 0c0 -12.985216 10.526594 -23.511812 23.511812 -23.511812l90.45668 0l0 0c6.235733 0 12.216049 2.477131 16.625366 6.88645c4.409317 4.409321 6.8864594 10.389641 6.8864594 16.625362l0 0l0 0c0 12.985214 -10.526611 23.51181 -23.511826 23.51181l-90.45668 0c-12.985218 0 -23.511812 -10.526596 -23.511812 -23.51181z" fill-rule="nonzero"></path><path stroke="#000000" stroke-width="1.0" stroke-linejoin="round" stroke-linecap="butt" d="m29.345255 39.480316l0 0c0 -12.985216 10.526594 -23.511812 23.511812 -23.511812l90.45668 0l0 0c6.235733 0 12.216049 2.477131 16.625366 6.88645c4.409317 4.409321 6.8864594 10.389641 6.8864594 16.625362l0 0l0 0c0 12.985214 -10.526611 23.51181 -23.511826 23.51181l-90.45668 0c-12.985218 0 -23.511812 -10.526596 -23.511812 -23.51181z" fill-rule="nonzero"></path><path fill="#000000" d="m74.94918 30.417189l-4.625 0l0 4.000002l0.9375 0q0.25 0 0.34375 0.109375q0.109375 0.09375 0.109375 0.25q0 0.140625 -0.109375 0.25q-0.09375 0.09375 -0.34375 0.09375l-2.421875 0q-0.25 0 -0.359375 -0.09375q-0.109375 -0.109375 -0.109375 -0.25q0 -0.15625 0.109375 -0.25q0.109375 -0.109375 0.359375 -0.109375l0.78125 0l0 -8.312502l-0.4375 0q-0.25 0 -0.359375 -0.09375q-0.109375 -0.09375 -0.109375 -0.25q0 -0.15625 0.109375 -0.25q0.109375 -0.109375 0.359375 -0.109375l2.078125 0q0.25 0 0.34375 0.109375q0.109375 0.09375 0.109375 0.25q0 0.15625 -0.109375 0.25q-0.09375 0.09375 -0.34375 0.09375l-0.9375 0l0 3.625l4.625 0l0 -3.625l-0.9375 0q-0.25 0 -0.359375 -0.09375q-0.109375 -0.09375 -0.109375 -0.25q0 -0.15625 0.109375 -0.25q0.109375 -0.109375 0.359375 -0.109375l2.0625 0q0.265625 0 0.375 0.109375q0.109375 0.09375 0.109375 0.25q0 0.15625 -0.109375 0.25q-0.109375 0.09375 -0.375 0.09375l-0.421875 0l0 8.312502l0.78125 0q0.25 0 0.359375 0.109375q0.109375 0.09375 0.109375 0.25q0 0.140625 -0.109375 0.25q-0.109375 0.09375 -0.359375 0.09375l-2.421875 0q-0.25 0 -0.359375 -0.09375q-0.109375 -0.109375 -0.109375 -0.25q0 -0.15625 0.109375 -0.25q0.109375 -0.109375 0.359375 -0.109375l0.9375 0l0 -4.000002zm8.186035 -4.3125l0 8.312502l2.390625 0q0.25 0 0.359375 0.109375q0.109375 0.09375 0.109375 0.25q0 0.140625 -0.109375 0.25q-0.109375 0.09375 -0.359375 0.09375l-5.484375 0q-0.25 0 -0.359375 -0.09375q-0.09375 -0.109375 -0.09375 -0.25q0 -0.15625 0.09375 -0.25q0.109375 -0.109375 0.359375 -0.109375l2.390625 0l0 -8.312502l-2.390625 0q-0.25 0 -0.359375 -0.09375q-0.09375 -0.09375 -0.09375 -0.25q0 -0.15625 0.09375 -0.25q0.109375 -0.109375 0.359375 -0.109375l5.484375 0q0.25 0 0.359375 0.109375q0.109375 0.09375 0.109375 0.25q0 0.15625 -0.109375 0.25q-0.109375 0.09375 -0.359375 0.09375l-2.390625 0zm12.57666 0l0 6.156252q0 1.28125 -0.953125 2.21875q-0.9375 0.921875 -2.25 0.921875q-0.796875 0 -1.5625 -0.359375q-0.75 -0.375 -1.640625 -1.1875l0 -2.578127q0 -0.25 0.09375 -0.359375q0.109375 -0.109375 0.25 -0.109375q0.15625 0 0.25 0.109375q0.109375 0.109375 0.109375 0.359375l-0.015625 2.234377q0.640625 0.59375 1.265625 0.890625q0.640625 0.296875 1.25 0.296875q0.671875 0 1.28125 -0.328125q0.453125 -0.25 0.828125 -0.84375q0.390625 -0.59375 0.390625 -1.265625l0 -6.156252l-2.734375 0q-0.25 0 -0.359375 -0.09375q-0.109375 -0.09375 -0.109375 -0.25q0 -0.15625 0.109375 -0.25q0.109375 -0.109375 0.359375 -0.109375l5.09375 0q0.25 0 0.359375 0.109375q0.109375 0.09375 0.109375 0.25q0 0.15625 -0.109375 0.25q-0.109375 0.09375 -0.359375 0.09375l-1.65625 0zm9.967285 0l0 -0.234375q0 -0.25 0.09375 -0.359375q0.09375 -0.109375 0.25 -0.109375q0.171875 0 0.265625 0.109375q0.09375 0.109375 0.09375 0.359375l0 1.78125q0 0.25 -0.09375 0.359375q-0.09375 0.109375 -0.265625 0.109375q-0.140625 0 -0.234375 -0.09375q-0.09375 -0.109375 -0.109375 -0.328125q-0.046875 -0.703125 -0.71875 -1.25q-0.671875 -0.5625 -1.765625 -0.5625q-1.15625 0 -1.84375 0.59375q-0.671875 0.59375 -0.671875 1.390625q0 0.421875 0.1875 0.765625q0.1875 0.328125 0.5 0.546875q0.328125 0.203125 0.71875 0.34375q0.40625 0.125 1.25 0.265625q1.421875 0.234375 1.953125 0.46875q0.71875 0.328125 1.09375 0.90625q0.375 0.5625 0.375 1.3437519q0 1.203125 -0.96875 2.046875q-0.953125 0.84375 -2.5625 0.84375q-1.8125 0 -2.90625 -1.140625l0 0.390625q0 0.25 -0.09375 0.359375q-0.09375 0.109375 -0.25 0.109375q-0.15625 0 -0.265625 -0.109375q-0.09375 -0.109375 -0.09375 -0.359375l0 -1.921875q0 -0.25 0.09375 -0.359375q0.109375 -0.109375 0.265625 -0.109375q0.140625 0 0.234375 0.09375q0.09375 0.09375 0.109375 0.328125q0.046875 0.765625 0.8125 1.390625q0.78125 0.625 2.09375 0.625q1.3125 0 2.0625 -0.65625q0.765625 -0.65625 0.765625 -1.546875q0 -0.5468769 -0.296875 -0.9687519q-0.28125 -0.4375 -0.859375 -0.6875q-0.390625 -0.171875 -1.65625 -0.390625q-1.734375 -0.296875 -2.5 -0.890625q-0.765625 -0.59375 -0.765625 -1.703125q0 -1.09375 0.875 -1.875q0.875 -0.796875 2.3125 -0.796875q1.46875 0 2.515625 0.921875zm11.967285 4.1875q0 1.390625 -0.5625 2.593752q-0.5625 1.1875 -1.5625 1.859375q-0.984375 0.65625 -2.125 0.65625q-1.6875 0 -2.96875 -1.4375q-1.28125 -1.4375 -1.28125 -3.671877q0 -2.25 1.28125 -3.671875q1.28125 -1.4375 2.96875 -1.4375q1.140625 0 2.125 0.671875q0.984375 0.65625 1.546875 1.84375q0.578125 1.1875 0.578125 2.59375zm-0.703125 0q0 -1.703125 -0.984375 -3.046875q-0.984375 -1.359375 -2.5625 -1.359375q-1.46875 0 -2.515625 1.296875q-1.03125 1.28125 -1.03125 3.109375q0 1.9375019 1.09375 3.171877q1.09375 1.234375 2.453125 1.234375q1.578125 0 2.5625 -1.34375q0.984375 -1.3593769 0.984375 -3.062502zm10.061035 4.828127l-0.890625 0l-5.140625 -8.687502l0 7.984377l1.28125 0q0.265625 0 0.359375 0.109375q0.109375 0.09375 0.109375 0.25q0 0.140625 -0.109375 0.25q-0.09375 0.09375 -0.359375 0.09375l-2.5625 0q-0.25 0 -0.359375 -0.09375q-0.109375 -0.109375 -0.109375 -0.25q0 -0.15625 0.109375 -0.25q0.109375 -0.109375 0.359375 -0.109375l0.578125 0l0 -8.312502l-0.9375 0q-0.25 0 -0.359375 -0.09375q-0.109375 -0.09375 -0.109375 -0.25q0 -0.15625 0.109375 -0.25q0.109375 -0.109375 0.359375 -0.109375l1.828125 0l5.140625 8.718752l0 -8.015627l-1.28125 0q-0.25 0 -0.359375 -0.09375q-0.109375 -0.09375 -0.109375 -0.25q0 -0.15625 0.109375 -0.25q0.109375 -0.109375 0.359375 -0.109375l2.578125 0q0.25 0 0.359375 0.109375q0.10938263 0.09375 0.10938263 0.25q0 0.15625 -0.10938263 0.25q-0.109375 0.09375 -0.359375 0.09375l-0.59375 0l0 9.015627z" fill-rule="nonzero"></path><path fill="#000000" d="m65.207726 51.43281l0 3.984375l5.359375 0l0 -2.046875q0 -0.25 0.09375 -0.359375q0.109375 -0.109375 0.265625 -0.109375q0.15625 0 0.25 0.109375q0.09375 0.109375 0.09375 0.359375l0 2.75l-7.6875 0q-0.25 0 -0.359375 -0.09375q-0.109375 -0.109375 -0.109375 -0.25q0 -0.15625 0.109375 -0.25q0.109375 -0.109375 0.359375 -0.109375l0.9375 0l0 -8.3125l-0.9375 0q-0.25 0 -0.359375 -0.09375q-0.109375 -0.09375 -0.109375 -0.25q0 -0.15625 0.109375 -0.25q0.109375 -0.109375 0.359375 -0.109375l7.328125 0l0 2.40625q0 0.25 -0.109375 0.359375q-0.09375 0.109375 -0.25 0.109375q-0.15625 0 -0.25 -0.109375q-0.09375 -0.109375 -0.09375 -0.359375l0 -1.703125l-5.0 0l0 3.625l2.5 0l0 -0.78125q0 -0.25 0.09375 -0.359375q0.109375 -0.109375 0.265625 -0.109375q0.140625 0 0.234375 0.109375q0.109375 0.109375 0.109375 0.359375l0 2.265625q0 0.25 -0.109375 0.359375q-0.09375 0.109375 -0.234375 0.109375q-0.15625 0 -0.265625 -0.109375q-0.09375 -0.109375 -0.09375 -0.359375l0 -0.78125l-2.5 0zm12.82666 -5.734375l0 9.71875l2.734375 0q0.265625 0 0.375 0.109375q0.109375 0.09375 0.109375 0.25q0 0.140625 -0.109375 0.25q-0.109375 0.09375 -0.375 0.09375l-6.171875 0q-0.25 0 -0.359375 -0.09375q-0.109375 -0.109375 -0.109375 -0.25q0 -0.15625 0.109375 -0.25q0.109375 -0.109375 0.359375 -0.109375l2.734375 0l0 -9.015625l-2.0 0q-0.25 0 -0.359375 -0.09375q-0.109375 -0.09375 -0.109375 -0.25q0 -0.15625 0.09375 -0.25q0.109375 -0.109375 0.375 -0.109375l2.703125 0zm13.623535 7.0l-7.109375 0q0.1875 1.34375 1.140625 2.171875q0.953125 0.828125 2.34375 0.828125q0.78125 0 1.640625 -0.25q0.859375 -0.265625 1.390625 -0.6875q0.15625 -0.125 0.28125 -0.125q0.125 0 0.21875 0.109375q0.109375 0.09375 0.109375 0.234375q0 0.140625 -0.140625 0.28125q-0.390625 0.40625 -1.40625 0.78125q-1.015625 0.359375 -2.09375 0.359375q-1.78125 0 -2.984375 -1.171875q-1.203125 -1.1875 -1.203125 -2.859375q0 -1.515625 1.125 -2.59375q1.125 -1.09375 2.78125 -1.09375q1.71875 0 2.8125 1.125q1.109375 1.109375 1.09375 2.890625zm-0.703125 -0.71875q-0.21875 -1.140625 -1.109375 -1.859375q-0.875 -0.734375 -2.09375 -0.734375q-1.21875 0 -2.09375 0.71875q-0.875 0.71875 -1.09375 1.875l6.390625 0zm3.9516602 -3.046875l0 0.703125q0.890625 -0.953125 1.78125 -0.953125q0.546875 0 0.953125 0.296875q0.40625 0.28125 0.6875 0.859375q0.453125 -0.578125 0.921875 -0.859375q0.484375 -0.296875 0.96875 -0.296875q0.765625 0 1.203125 0.484375q0.59375 0.640625 0.59375 1.390625l0 4.859375l0.59375 0q0.25 0 0.34375 0.109375q0.109375 0.09375 0.109375 0.25q0 0.140625 -0.109375 0.25q-0.09375 0.09375 -0.34375 0.09375l-1.296875 0l0 -5.5q0 -0.53125 -0.328125 -0.875q-0.3125 -0.359375 -0.734375 -0.359375q-0.390625 0 -0.8125 0.296875q-0.421875 0.28125 -0.953125 1.109375l0 4.625l0.578125 0q0.25 0 0.359375 0.109375q0.109375 0.09375 0.109375 0.25q0 0.140625 -0.109375 0.25q-0.109375 0.09375 -0.359375 0.09375l-1.28125 0l0 -5.453125q0 -0.5625 -0.328125 -0.921875q-0.328125 -0.359375 -0.734375 -0.359375q-0.375 0 -0.75 0.25q-0.5 0.328125 -1.0625 1.15625l0 4.625l0.59375 0q0.25 0 0.359375 0.109375q0.109375 0.09375 0.109375 0.25q0 0.140625 -0.109375 0.25q-0.109375 0.09375 -0.359375 0.09375l-1.875 0q-0.25 0 -0.359375 -0.09375q-0.109375 -0.109375 -0.109375 -0.25q0 -0.15625 0.109375 -0.25q0.109375 -0.109375 0.359375 -0.109375l0.59375 0l0 -5.78125l-0.59375 0q-0.25 0 -0.359375 -0.09375q-0.109375 -0.109375 -0.109375 -0.265625q0 -0.140625 0.109375 -0.234375q0.109375 -0.109375 0.359375 -0.109375l1.28125 0zm17.154785 3.765625l-7.109375 0q0.1875 1.34375 1.140625 2.171875q0.953125 0.828125 2.34375 0.828125q0.78125 0 1.640625 -0.25q0.859375 -0.265625 1.390625 -0.6875q0.15625 -0.125 0.28125 -0.125q0.125 0 0.21875 0.109375q0.109375 0.09375 0.109375 0.234375q0 0.140625 -0.140625 0.28125q-0.390625 0.40625 -1.40625 0.78125q-1.015625 0.359375 -2.09375 0.359375q-1.78125 0 -2.984375 -1.171875q-1.203125 -1.1875 -1.203125 -2.859375q0 -1.515625 1.125 -2.59375q1.125 -1.09375 2.78125 -1.09375q1.71875 0 2.8125 1.125q1.109375 1.109375 1.09375 2.890625zm-0.703125 -0.71875q-0.21875 -1.140625 -1.109375 -1.859375q-0.875 -0.734375 -2.09375 -0.734375q-1.21875 0 -2.09375 0.71875q-0.875 0.71875 -1.09375 1.875l6.390625 0zm4.873535 -3.046875l0 1.046875q0.734375 -0.734375 1.3125 -1.015625q0.59375 -0.28125 1.34375 -0.28125q0.796875 0 1.453125 0.34375q0.453125 0.25 0.828125 0.828125q0.390625 0.578125 0.390625 1.171875l0 4.390625l0.578125 0q0.25 0 0.359375 0.109375q0.109375 0.09375 0.109375 0.25q0 0.140625 -0.109375 0.25q-0.109375 0.09375 -0.359375 0.09375l-1.859375 0q-0.265625 0 -0.375 -0.09375q-0.09375 -0.109375 -0.09375 -0.25q0 -0.15625 0.09375 -0.25q0.109375 -0.109375 0.375 -0.109375l0.578125 0l0 -4.265625q0 -0.75 -0.546875 -1.25q-0.53125 -0.515625 -1.4375 -0.515625q-0.6875 0 -1.203125 0.28125q-0.5 0.28125 -1.4375 1.375l0 4.375l0.796875 0q0.25 0 0.34375 0.109375q0.109375 0.09375 0.109375 0.25q0 0.140625 -0.109375 0.25q-0.09375 0.09375 -0.34375 0.09375l-2.28125 0q-0.25 0 -0.359375 -0.09375q-0.109375 -0.109375 -0.109375 -0.25q0 -0.15625 0.109375 -0.25q0.109375 -0.109375 0.359375 -0.109375l0.796875 0l0 -5.78125l-0.59375 0q-0.25 0 -0.359375 -0.09375q-0.109375 -0.109375 -0.109375 -0.265625q0 -0.140625 0.109375 -0.234375q0.109375 -0.109375 0.359375 -0.109375l1.28125 0zm11.029785 0l3.7812576 0q0.25 0 0.359375 0.109375q0.109375 0.09375 0.109375 0.25q0 0.140625 -0.109375 0.25q-0.109375 0.09375 -0.359375 0.09375l-3.7812576 0l0 4.640625q0 0.609375 0.484375 1.015625q0.48438263 0.40625 1.4218826 0.40625q0.703125 0 1.515625 -0.203125q0.828125 -0.21875 1.296875 -0.484375q0.15625 -0.109375 0.265625 -0.109375q0.140625 0 0.234375 0.109375q0.09375 0.09375 0.09375 0.234375q0 0.125 -0.109375 0.234375q-0.265625 0.28125 -1.296875 0.609375q-1.015625 0.3125 -1.953125 0.3125q-1.2187576 0 -1.9375076 -0.578125q-0.71875 -0.578125 -0.71875 -1.546875l0 -4.640625l-1.296875 0q-0.25 0 -0.359375 -0.09375q-0.09375 -0.109375 -0.09375 -0.265625q0 -0.140625 0.09375 -0.234375q0.109375 -0.109375 0.359375 -0.109375l1.296875 0l0 -2.0625q0 -0.25 0.09375 -0.359375q0.09375 -0.109375 0.25 -0.109375q0.15625 0 0.25 0.109375q0.109375 0.109375 0.109375 0.359375l0 2.0625z" fill-rule="nonzero"></path></g></svg>

