<?xml version="1.0" standalone="yes"?>

<svg version="1.1" viewBox="0.0 0.0 335.0 550.0" fill="none" stroke="none" stroke-linecap="square" stroke-miterlimit="10" xmlns="http://www.w3.org/2000/svg" xmlns:xlink="http://www.w3.org/1999/xlink"><clipPath id="p.0"><path d="m0 0l335.0 0l0 550.0l-335.0 0l0 -550.0z" clip-rule="nonzero"></path></clipPath><g clip-path="url(#p.0)"><path fill="#ffffff" d="m0 0l335.37796 0l0 550.09973l-335.37796 0z" fill-rule="nonzero"></path><path fill="#d9d9d9" d="m12.102363 5.624672l316.40945 0l0 74.92913l-316.40945 0z" fill-rule="nonzero"></path><path stroke="#000000" stroke-width="2.0" stroke-linejoin="round" stroke-linecap="butt" d="m12.102363 5.624672l316.40945 0l0 74.92913l-316.40945 0z" fill-rule="nonzero"></path><path fill="#000000" d="m80.021935 44.988613l-6.515625 0l0 5.65625l1.3125 0q0.359375 0 0.5 0.140625q0.15625 0.125 0.15625 0.34375q0 0.21875 -0.15625 0.359375q-0.140625 0.140625 -0.5 0.140625l-3.421875 0q-0.34375 0 -0.5 -0.140625q-0.15625 -0.140625 -0.15625 -0.359375q0 -0.21875 0.15625 -0.34375q0.15625 -0.140625 0.5 -0.140625l1.125 0l0 -11.75l-0.609375 0q-0.375 0 -0.53125 -0.125q-0.140625 -0.140625 -0.140625 -0.359375q0 -0.21875 0.140625 -0.359375q0.15625 -0.140625 0.53125 -0.140625l2.90625 0q0.359375 0 0.5 0.140625q0.15625 0.140625 0.15625 0.359375q0 0.21875 -0.15625 0.359375q-0.140625 0.125 -0.5 0.125l-1.3125 0l0 5.109375l6.515625 0l0 -5.109375l-1.3125 0q-0.34375 0 -0.5 -0.125q-0.15625 -0.140625 -0.15625 -0.359375q0 -0.21875 0.140625 -0.359375q0.15625 -0.140625 0.515625 -0.140625l2.921875 0q0.359375 0 0.515625 0.140625q0.15625 0.140625 0.15625 0.359375q0 0.21875 -0.15625 0.359375q-0.15625 0.125 -0.515625 0.125l-0.609375 0l0 11.75l1.109375 0q0.359375 0 0.5 0.140625q0.15625 0.125 0.15625 0.34375q0 0.21875 -0.15625 0.359375q-0.140625 0.140625 -0.5 0.140625l-3.421875 0q-0.34375 0 -0.5 -0.140625q-0.15625 -0.140625 -0.15625 -0.359375q0 -0.21875 0.140625 -0.34375q0.15625 -0.140625 0.515625 -0.140625l1.3125 0l0 -5.65625zm11.574219 -6.09375l0 11.75l3.375 0q0.34375 0 0.5 0.140625q0.15625 0.125 0.15625 0.34375q0 0.21875 -0.15625 0.359375q-0.15625 0.140625 -0.5 0.140625l-7.734375 0q-0.359375 0 -0.515625 -0.140625q-0.140625 -0.140625 -0.140625 -0.359375q0 -0.21875 0.140625 -0.34375q0.15625 -0.140625 0.515625 -0.140625l3.375 0l0 -11.75l-3.375 0q-0.359375 0 -0.515625 -0.125q-0.140625 -0.140625 -0.140625 -0.359375q0 -0.21875 0.140625 -0.359375q0.15625 -0.140625 0.515625 -0.140625l7.734375 0q0.34375 0 0.5 0.140625q0.15625 0.140625 0.15625 0.359375q0 0.21875 -0.15625 0.359375q-0.15625 0.125 -0.5 0.125l-3.375 0zm17.746094 0l0 8.703125q0 1.796875 -1.34375 3.109375q-1.328125 1.3125 -3.171875 1.3125q-1.109375 0 -2.1875 -0.515625q-1.078125 -0.515625 -2.34375 -1.671875l0 -3.625q0 -0.359375 0.140625 -0.5q0.140625 -0.15625 0.359375 -0.15625q0.21875 0 0.359375 0.15625q0.140625 0.140625 0.140625 0.5l-0.015625 3.15625q0.90625 0.828125 1.78125 1.25q0.890625 0.421875 1.765625 0.421875q0.953125 0 1.8125 -0.46875q0.640625 -0.359375 1.171875 -1.1875q0.546875 -0.828125 0.546875 -1.78125l0 -8.703125l-3.859375 0q-0.359375 0 -0.515625 -0.125q-0.15625 -0.140625 -0.15625 -0.359375q0 -0.21875 0.15625 -0.359375q0.15625 -0.140625 0.515625 -0.140625l7.1875 0q0.359375 0 0.5 0.140625q0.15625 0.140625 0.15625 0.359375q0 0.21875 -0.15625 0.359375q-0.140625 0.125 -0.5 0.125l-2.34375 0zm14.074219 0l0 -0.328125q0 -0.34375 0.140625 -0.5q0.140625 -0.15625 0.359375 -0.15625q0.21875 0 0.34375 0.15625q0.140625 0.15625 0.140625 0.5l0 2.515625q0 0.34375 -0.140625 0.5q-0.125 0.15625 -0.34375 0.15625q-0.21875 0 -0.359375 -0.140625q-0.125 -0.140625 -0.140625 -0.453125q-0.046875 -0.984375 -1.015625 -1.765625q-0.953125 -0.796875 -2.5 -0.796875q-1.625 0 -2.59375 0.84375q-0.953125 0.828125 -0.953125 1.96875q0 0.59375 0.265625 1.078125q0.28125 0.46875 0.71875 0.765625q0.453125 0.296875 1.015625 0.484375q0.5625 0.1875 1.75 0.375q2.0 0.328125 2.765625 0.671875q1.015625 0.453125 1.53125 1.265625q0.53125 0.8125 0.53125 1.90625q0 1.6875 -1.34375 2.890625q-1.34375 1.1875 -3.640625 1.1875q-2.5625 0 -4.09375 -1.609375l0 0.5625q0 0.34375 -0.140625 0.5q-0.125 0.15625 -0.359375 0.15625q-0.203125 0 -0.34375 -0.15625q-0.140625 -0.15625 -0.140625 -0.5l0 -2.71875q0 -0.359375 0.125 -0.515625q0.140625 -0.15625 0.359375 -0.15625q0.21875 0 0.34375 0.140625q0.140625 0.140625 0.15625 0.453125q0.0625 1.078125 1.15625 1.96875q1.09375 0.890625 2.9375 0.890625q1.859375 0 2.921875 -0.921875q1.078125 -0.9375 1.078125 -2.203125q0 -0.765625 -0.40625 -1.375q-0.40625 -0.609375 -1.21875 -0.953125q-0.5625 -0.25 -2.34375 -0.546875q-2.453125 -0.421875 -3.53125 -1.265625q-1.078125 -0.84375 -1.078125 -2.390625q0 -1.546875 1.234375 -2.65625q1.234375 -1.125 3.265625 -1.125q2.0625 0 3.546875 1.296875zm16.902336 5.90625q0 1.96875 -0.796875 3.65625q-0.796875 1.6875 -2.203125 2.625q-1.390625 0.9375 -3.0 0.9375q-2.375 0 -4.1875 -2.015625q-1.8125 -2.03125 -1.8125 -5.203125q0 -3.171875 1.8125 -5.1875q1.8125 -2.015625 4.1875 -2.015625q1.609375 0 3.0 0.9375q1.390625 0.9375 2.1875 2.625q0.8125 1.671875 0.8125 3.640625zm-1.0 0q0 -2.390625 -1.390625 -4.296875q-1.390625 -1.921875 -3.609375 -1.921875q-2.078125 0 -3.546875 1.828125q-1.46875 1.8125 -1.46875 4.390625q0 2.75 1.53125 4.5q1.546875 1.734375 3.484375 1.734375q2.21875 0 3.609375 -1.90625q1.390625 -1.90625 1.390625 -4.328125zm14.214844 6.828125l-1.265625 0l-7.265625 -12.265625l0 11.28125l1.828125 0q0.359375 0 0.5 0.140625q0.15625 0.125 0.15625 0.34375q0 0.21875 -0.15625 0.359375q-0.140625 0.140625 -0.5 0.140625l-3.625 0q-0.359375 0 -0.515625 -0.140625q-0.15625 -0.140625 -0.15625 -0.359375q0 -0.21875 0.15625 -0.34375q0.15625 -0.140625 0.515625 -0.140625l0.8125 0l0 -11.75l-1.3125 0q-0.359375 0 -0.515625 -0.125q-0.140625 -0.140625 -0.140625 -0.359375q0 -0.21875 0.140625 -0.359375q0.15625 -0.140625 0.515625 -0.140625l2.578125 0l7.265625 12.296875l0 -11.3125l-1.828125 0q-0.34375 0 -0.5 -0.125q-0.15625 -0.140625 -0.15625 -0.359375q0 -0.21875 0.140625 -0.359375q0.15625 -0.140625 0.515625 -0.140625l3.640625 0q0.34375 0 0.5 0.140625q0.15625 0.140625 0.15625 0.359375q0 0.21875 -0.15625 0.359375q-0.15625 0.125 -0.5 0.125l-0.828125 0l0 12.734375z" fill-rule="nonzero"></path><path fill="#000000" d="m175.71333 45.00424l-1.203125 5.640625l7.578125 0l0.609375 -2.90625q0.078125 -0.359375 0.25 -0.5q0.171875 -0.15625 0.390625 -0.15625q0.171875 0 0.28125 0.109375q0.109375 0.09375 0.109375 0.234375q0 0.109375 -0.03125 0.3125l-0.84375 3.890625l-10.859375 0q-0.328125 0 -0.453125 -0.109375q-0.109375 -0.109375 -0.109375 -0.296875q0 -0.234375 0.1875 -0.40625q0.203125 -0.171875 0.59375 -0.171875l1.3125 0l2.5 -11.75l-1.328125 0q-0.328125 0 -0.453125 -0.09375q-0.109375 -0.09375 -0.109375 -0.296875q0 -0.234375 0.1875 -0.40625q0.203125 -0.1875 0.59375 -0.1875l10.34375 0l-0.71875 3.390625q-0.078125 0.359375 -0.25 0.515625q-0.171875 0.140625 -0.390625 0.140625q-0.171875 0 -0.28125 -0.09375q-0.109375 -0.109375 -0.109375 -0.25q0 -0.109375 0.046875 -0.3125l0.5 -2.40625l-7.046875 0l-1.09375 5.125l3.53125 0l0.234375 -1.109375q0.078125 -0.359375 0.25 -0.5q0.171875 -0.15625 0.390625 -0.15625q0.171875 0 0.28125 0.109375q0.125 0.09375 0.125 0.25q0 0.09375 -0.046875 0.296875l-0.6875 3.203125q-0.078125 0.359375 -0.25 0.515625q-0.171875 0.140625 -0.390625 0.140625q-0.15625 0 -0.28125 -0.09375q-0.109375 -0.109375 -0.109375 -0.265625q0 -0.109375 0.046875 -0.296875l0.234375 -1.109375l-3.53125 0zm19.839844 -8.078125l-2.921875 13.71875l3.875 0q0.328125 0 0.4375 0.109375q0.125 0.09375 0.125 0.28125q0 0.234375 -0.203125 0.421875q-0.1875 0.171875 -0.578125 0.171875l-8.71875 0q-0.328125 0 -0.453125 -0.109375q-0.109375 -0.109375 -0.109375 -0.296875q0 -0.234375 0.1875 -0.40625q0.203125 -0.171875 0.59375 -0.171875l3.859375 0l2.703125 -12.734375l-2.84375 0q-0.328125 0 -0.453125 -0.09375q-0.109375 -0.109375 -0.109375 -0.296875q0 -0.234375 0.1875 -0.40625q0.203125 -0.1875 0.59375 -0.1875l3.828125 0zm17.136719 9.859375l-10.03125 0q-0.046875 0.359375 -0.046875 0.546875q0 1.609375 1.09375 2.65625q1.09375 1.046875 2.953125 1.046875q1.09375 0 2.359375 -0.359375q1.28125 -0.359375 2.203125 -0.96875q0.265625 -0.171875 0.4375 -0.171875q0.140625 0 0.25 0.109375q0.109375 0.109375 0.109375 0.28125q0 0.21875 -0.1875 0.40625q-0.546875 0.5625 -2.171875 1.125q-1.609375 0.5625 -3.265625 0.5625q-2.15625 0 -3.46875 -1.28125q-1.296875 -1.28125 -1.296875 -3.25q0 -1.296875 0.5625 -2.453125q0.5625 -1.15625 1.46875 -1.984375q0.921875 -0.84375 2.125 -1.375q1.203125 -0.546875 2.625 -0.546875q2.015625 0 3.234375 1.1875q1.234375 1.171875 1.234375 3.015625q0 0.609375 -0.1875 1.453125zm-0.796875 -1.0q0.046875 -1.609375 -0.96875 -2.640625q-1.03125 -1.015625 -2.765625 -1.015625q-1.6875 0 -3.15625 1.0q-1.453125 0.984375 -2.140625 2.65625l9.03125 0zm6.4960938 -4.3125l-0.203125 1.0q1.53125 -1.34375 2.8125 -1.34375q0.703125 0 1.203125 0.40625q0.515625 0.40625 0.734375 1.21875q0.828125 -0.8125 1.59375 -1.21875q0.765625 -0.40625 1.453125 -0.40625q0.875 0 1.4375 0.59375q0.578125 0.59375 0.578125 1.53125q0 0.234375 -0.0625 0.515625l-1.453125 6.875l0.8125 0q0.34375 0 0.453125 0.109375q0.125 0.09375 0.125 0.28125q0 0.234375 -0.203125 0.421875q-0.203125 0.171875 -0.578125 0.171875l-1.828125 0l1.65625 -7.765625q0.046875 -0.203125 0.046875 -0.40625q0 -0.625 -0.34375 -0.96875q-0.328125 -0.359375 -0.8125 -0.359375q-0.546875 0 -1.125 0.328125q-0.78125 0.453125 -1.8125 1.65625l-1.40625 6.53125l0.84375 0q0.328125 0 0.4375 0.109375q0.125 0.09375 0.125 0.28125q0 0.234375 -0.203125 0.421875q-0.1875 0.171875 -0.578125 0.171875l-1.8125 0l1.640625 -7.703125q0.046875 -0.234375 0.046875 -0.453125q0 -0.59375 -0.34375 -0.96875q-0.34375 -0.375 -0.8125 -0.375q-0.515625 0 -1.09375 0.3125q-0.828125 0.484375 -1.890625 1.671875l-1.375 6.53125l0.8125 0q0.34375 0 0.453125 0.109375q0.125 0.09375 0.125 0.28125q0 0.234375 -0.203125 0.421875q-0.203125 0.171875 -0.578125 0.171875l-2.640625 0q-0.328125 0 -0.453125 -0.109375q-0.109375 -0.109375 -0.109375 -0.296875q0 -0.234375 0.1875 -0.40625q0.203125 -0.171875 0.578125 -0.171875l0.828125 0l1.75 -8.171875l-0.84375 0q-0.328125 0 -0.453125 -0.09375q-0.109375 -0.109375 -0.109375 -0.296875q0 -0.234375 0.1875 -0.421875q0.203125 -0.1875 0.59375 -0.1875l1.8125 0zm23.105469 5.3125l-10.03125 0q-0.046875 0.359375 -0.046875 0.546875q0 1.609375 1.09375 2.65625q1.09375 1.046875 2.953125 1.046875q1.09375 0 2.359375 -0.359375q1.28125 -0.359375 2.203125 -0.96875q0.265625 -0.171875 0.4375 -0.171875q0.140625 0 0.25 0.109375q0.109375 0.109375 0.109375 0.28125q0 0.21875 -0.1875 0.40625q-0.546875 0.5625 -2.171875 1.125q-1.609375 0.5625 -3.265625 0.5625q-2.15625 0 -3.46875 -1.28125q-1.296875 -1.28125 -1.296875 -3.25q0 -1.296875 0.5625 -2.453125q0.5625 -1.15625 1.46875 -1.984375q0.921875 -0.84375 2.125 -1.375q1.203125 -0.546875 2.625 -0.546875q2.015625 0 3.234375 1.1875q1.234375 1.171875 1.234375 3.015625q0 0.609375 -0.1875 1.453125zm-0.796875 -1.0q0.046875 -1.609375 -0.96875 -2.640625q-1.03125 -1.015625 -2.765625 -1.015625q-1.6875 0 -3.15625 1.0q-1.453125 0.984375 -2.140625 2.65625l9.03125 0zm7.7929688 -4.3125l-0.3125 1.5q1.296875 -1.078125 2.203125 -1.453125q0.90625 -0.390625 1.953125 -0.390625q1.453125 0 2.28125 0.78125q0.828125 0.765625 0.828125 2.0q0 0.234375 -0.0625 0.53125l-1.3125 6.203125l0.828125 0q0.328125 0 0.4375 0.109375q0.125 0.09375 0.125 0.28125q0 0.234375 -0.203125 0.421875q-0.1875 0.171875 -0.578125 0.171875l-2.640625 0q-0.328125 0 -0.453125 -0.109375q-0.109375 -0.109375 -0.109375 -0.296875q0 -0.234375 0.1875 -0.40625q0.203125 -0.171875 0.578125 -0.171875l0.84375 0l1.265625 -6.03125q0.0625 -0.28125 0.0625 -0.515625q0 -0.859375 -0.59375 -1.40625q-0.59375 -0.5625 -1.71875 -0.5625q-1.015625 0 -1.828125 0.40625q-0.796875 0.40625 -2.40625 1.9375l-1.3125 6.171875l1.109375 0q0.328125 0 0.4375 0.109375q0.125 0.09375 0.125 0.28125q0 0.234375 -0.203125 0.421875q-0.1875 0.171875 -0.5625 0.171875l-3.21875 0q-0.328125 0 -0.453125 -0.109375q-0.109375 -0.109375 -0.109375 -0.296875q0 -0.234375 0.1875 -0.40625q0.203125 -0.171875 0.59375 -0.171875l1.109375 0l1.734375 -8.171875l-0.828125 0q-0.328125 0 -0.453125 -0.09375q-0.109375 -0.109375 -0.109375 -0.296875q0 -0.234375 0.1875 -0.421875q0.1875 -0.1875 0.578125 -0.1875l1.8125 0zm15.621109 0l5.3437195 0q0.328125 0 0.4375 0.09375q0.125 0.09375 0.125 0.296875q0 0.21875 -0.09375 0.359375q-0.078125 0.125 -0.1875 0.1875q-0.15625 0.0625 -0.5 0.0625l-5.3437195 0l-1.390625 6.546875q-0.0625 0.28125 -0.0625 0.515625q0 0.5625 0.578125 1.03125q0.578125 0.46875 1.703125 0.46875q1.03125 0 2.25 -0.296875q1.2343445 -0.296875 1.9687195 -0.6875q0.265625 -0.140625 0.421875 -0.140625q0.15625 0 0.265625 0.109375q0.109375 0.109375 0.109375 0.296875q0 0.25 -0.296875 0.453125q-0.71875 0.515625 -2.5155945 0.9375q-1.3125 0.3125 -2.421875 0.3125q-1.46875 0 -2.265625 -0.671875q-0.796875 -0.6875 -0.796875 -1.65625q0 -0.296875 0.0625 -0.671875l1.390625 -6.546875l-1.8125 0q-0.328125 0 -0.453125 -0.09375q-0.109375 -0.109375 -0.109375 -0.296875q0 -0.234375 0.1875 -0.421875q0.203125 -0.1875 0.59375 -0.1875l1.8125 0l0.625 -2.90625q0.0625 -0.34375 0.234375 -0.5q0.1875 -0.15625 0.40625 -0.15625q0.15625 0 0.265625 0.109375q0.125 0.109375 0.125 0.265625q0 0.09375 -0.046875 0.28125l-0.609375 2.90625z" fill-rule="nonzero"></path><path fill="#f3f3f3" d="m83.3294 275.0506l0 0c0 -43.50438 38.94065 -78.77164 86.97639 -78.77164l0 0c48.03572 0 86.97638 35.267258 86.97638 78.77164l0 0c0 43.504395 -38.94066 78.77167 -86.97638 78.77167l0 0c-48.035736 0 -86.97639 -35.267273 -86.97639 -78.77167z" fill-rule="nonzero"></path><path stroke="#000000" stroke-width="2.0" stroke-linejoin="round" stroke-linecap="butt" d="m83.3294 275.0506l0 0c0 -43.50438 38.94065 -78.77164 86.97639 -78.77164l0 0c48.03572 0 86.97638 35.267258 86.97638 78.77164l0 0c0 43.504395 -38.94066 78.77167 -86.97638 78.77167l0 0c-48.035736 0 -86.97639 -35.267273 -86.97639 -78.77167z" fill-rule="nonzero"></path><path fill="#000000" d="m137.63 262.44998l-6.515625 0l0 5.65625l1.3125 0q0.359375 0 0.5 0.140625q0.15625 0.125 0.15625 0.34375q0 0.21875 -0.15625 0.359375q-0.140625 0.140625 -0.5 0.140625l-3.421875 0q-0.34375 0 -0.5 -0.140625q-0.15625 -0.140625 -0.15625 -0.359375q0 -0.21875 0.15625 -0.34375q0.15625 -0.140625 0.5 -0.140625l1.125 0l0 -11.75l-0.609375 0q-0.375 0 -0.53125 -0.125q-0.140625 -0.140625 -0.140625 -0.359375q0 -0.21875 0.140625 -0.359375q0.15625 -0.140625 0.53125 -0.140625l2.90625 0q0.359375 0 0.5 0.140625q0.15625 0.140625 0.15625 0.359375q0 0.21875 -0.15625 0.359375q-0.140625 0.125 -0.5 0.125l-1.3125 0l0 5.109375l6.515625 0l0 -5.109375l-1.3125 0q-0.34375 0 -0.5 -0.125q-0.15625 -0.140625 -0.15625 -0.359375q0 -0.21875 0.140625 -0.359375q0.15625 -0.140625 0.515625 -0.140625l2.921875 0q0.359375 0 0.515625 0.140625q0.15625 0.140625 0.15625 0.359375q0 0.21875 -0.15625 0.359375q-0.15625 0.125 -0.515625 0.125l-0.609375 0l0 11.75l1.109375 0q0.359375 0 0.5 0.140625q0.15625 0.125 0.15625 0.34375q0 0.21875 -0.15625 0.359375q-0.140625 0.140625 -0.5 0.140625l-3.421875 0q-0.34375 0 -0.5 -0.140625q-0.15625 -0.140625 -0.15625 -0.359375q0 -0.21875 0.140625 -0.34375q0.15625 -0.140625 0.515625 -0.140625l1.3125 0l0 -5.65625zm11.574219 -6.09375l0 11.75l3.375 0q0.34375 0 0.5 0.140625q0.15625 0.125 0.15625 0.34375q0 0.21875 -0.15625 0.359375q-0.15625 0.140625 -0.5 0.140625l-7.734375 0q-0.359375 0 -0.515625 -0.140625q-0.140625 -0.140625 -0.140625 -0.359375q0 -0.21875 0.140625 -0.34375q0.15625 -0.140625 0.515625 -0.140625l3.375 0l0 -11.75l-3.375 0q-0.359375 0 -0.515625 -0.125q-0.140625 -0.140625 -0.140625 -0.359375q0 -0.21875 0.140625 -0.359375q0.15625 -0.140625 0.515625 -0.140625l7.734375 0q0.34375 0 0.5 0.140625q0.15625 0.140625 0.15625 0.359375q0 0.21875 -0.15625 0.359375q-0.15625 0.125 -0.5 0.125l-3.375 0zm17.746094 0l0 8.703125q0 1.796875 -1.34375 3.109375q-1.328125 1.3125 -3.171875 1.3125q-1.109375 0 -2.1875 -0.515625q-1.078125 -0.515625 -2.34375 -1.671875l0 -3.625q0 -0.359375 0.140625 -0.5q0.140625 -0.15625 0.359375 -0.15625q0.21875 0 0.359375 0.15625q0.140625 0.140625 0.140625 0.5l-0.015625 3.15625q0.90625 0.828125 1.78125 1.25q0.890625 0.421875 1.765625 0.421875q0.953125 0 1.8125 -0.46875q0.640625 -0.359375 1.171875 -1.1875q0.546875 -0.828125 0.546875 -1.78125l0 -8.703125l-3.859375 0q-0.359375 0 -0.515625 -0.125q-0.15625 -0.140625 -0.15625 -0.359375q0 -0.21875 0.15625 -0.359375q0.15625 -0.140625 0.515625 -0.140625l7.1875 0q0.359375 0 0.5 0.140625q0.15625 0.140625 0.15625 0.359375q0 0.21875 -0.15625 0.359375q-0.140625 0.125 -0.5 0.125l-2.34375 0zm14.074219 0l0 -0.328125q0 -0.34375 0.140625 -0.5q0.140625 -0.15625 0.359375 -0.15625q0.21875 0 0.34375 0.15625q0.140625 0.15625 0.140625 0.5l0 2.515625q0 0.34375 -0.140625 0.5q-0.125 0.15625 -0.34375 0.15625q-0.21875 0 -0.359375 -0.140625q-0.125 -0.140625 -0.140625 -0.453125q-0.046875 -0.984375 -1.015625 -1.765625q-0.953125 -0.796875 -2.5 -0.796875q-1.625 0 -2.59375 0.84375q-0.953125 0.828125 -0.953125 1.96875q0 0.59375 0.265625 1.078125q0.28125 0.46875 0.71875 0.765625q0.453125 0.296875 1.015625 0.484375q0.5625 0.1875 1.75 0.375q2.0 0.328125 2.765625 0.671875q1.015625 0.453125 1.53125 1.265625q0.53125 0.8125 0.53125 1.90625q0 1.6875 -1.34375 2.890625q-1.34375 1.1875 -3.640625 1.1875q-2.5625 0 -4.09375 -1.609375l0 0.5625q0 0.34375 -0.140625 0.5q-0.125 0.15625 -0.359375 0.15625q-0.203125 0 -0.34375 -0.15625q-0.140625 -0.15625 -0.140625 -0.5l0 -2.71875q0 -0.359375 0.125 -0.515625q0.140625 -0.15625 0.359375 -0.15625q0.21875 0 0.34375 0.140625q0.140625 0.140625 0.15625 0.453125q0.0625 1.078125 1.15625 1.96875q1.09375 0.890625 2.9375 0.890625q1.859375 0 2.921875 -0.921875q1.078125 -0.9375 1.078125 -2.203125q0 -0.765625 -0.40625 -1.375q-0.40625 -0.609375 -1.21875 -0.953125q-0.5625 -0.25 -2.34375 -0.546875q-2.453125 -0.421875 -3.53125 -1.265625q-1.078125 -0.84375 -1.078125 -2.390625q0 -1.546875 1.234375 -2.65625q1.234375 -1.125 3.265625 -1.125q2.0625 0 3.546875 1.296875zm16.902344 5.90625q0 1.96875 -0.796875 3.65625q-0.796875 1.6875 -2.203125 2.625q-1.390625 0.9375 -3.0 0.9375q-2.375 0 -4.1875 -2.015625q-1.8125 -2.03125 -1.8125 -5.203125q0 -3.171875 1.8125 -5.1875q1.8125 -2.015625 4.1875 -2.015625q1.609375 0 3.0 0.9375q1.390625 0.9375 2.1875 2.625q0.8125 1.671875 0.8125 3.640625zm-1.0 0q0 -2.390625 -1.390625 -4.296875q-1.390625 -1.921875 -3.609375 -1.921875q-2.078125 0 -3.546875 1.828125q-1.46875 1.8125 -1.46875 4.390625q0 2.75 1.53125 4.5q1.546875 1.734375 3.484375 1.734375q2.21875 0 3.609375 -1.90625q1.390625 -1.90625 1.390625 -4.328125zm14.214844 6.828125l-1.265625 0l-7.265625 -12.265625l0 11.28125l1.828125 0q0.359375 0 0.5 0.140625q0.15625 0.125 0.15625 0.34375q0 0.21875 -0.15625 0.359375q-0.140625 0.140625 -0.5 0.140625l-3.625 0q-0.359375 0 -0.515625 -0.140625q-0.15625 -0.140625 -0.15625 -0.359375q0 -0.21875 0.15625 -0.34375q0.15625 -0.140625 0.515625 -0.140625l0.8125 0l0 -11.75l-1.3125 0q-0.359375 0 -0.515625 -0.125q-0.140625 -0.140625 -0.140625 -0.359375q0 -0.21875 0.140625 -0.359375q0.15625 -0.140625 0.515625 -0.140625l2.578125 0l7.265625 12.296875l0 -11.3125l-1.828125 0q-0.34375 0 -0.5 -0.125q-0.15625 -0.140625 -0.15625 -0.359375q0 -0.21875 0.140625 -0.359375q0.15625 -0.140625 0.515625 -0.140625l3.640625 0q0.34375 0 0.5 0.140625q0.15625 0.140625 0.15625 0.359375q0 0.21875 -0.15625 0.359375q-0.15625 0.125 -0.5 0.125l-0.828125 0l0 12.734375z" fill-rule="nonzero"></path><path fill="#000000" d="m148.58118 285.73123l0.15625 -0.703125q0.078125 -0.34375 0.234375 -0.5q0.171875 -0.15625 0.40625 -0.15625q0.171875 0 0.28125 0.109375q0.109375 0.109375 0.109375 0.265625q0 0.09375 -0.046875 0.28125l-0.578125 2.734375q-0.078125 0.359375 -0.25 0.515625q-0.171875 0.15625 -0.390625 0.15625q-0.15625 0 -0.28125 -0.109375q-0.109375 -0.109375 -0.109375 -0.25q0 -0.09375 0.015625 -0.234375q0.03125 -0.140625 0.03125 -0.296875q0 -0.890625 -0.859375 -1.578125q-1.125 -0.921875 -2.734375 -0.921875q-1.109375 0 -2.234375 0.5q-0.859375 0.375 -1.40625 0.90625q-1.015625 0.984375 -1.6875 2.09375q-0.453125 0.75 -0.6875 1.78125l-0.359375 1.71875q-0.109375 0.546875 -0.109375 1.09375q0 1.859375 1.21875 3.109375q1.21875 1.25 3.03125 1.25q1.234375 0 2.34375 -0.53125q1.125 -0.546875 2.328125 -1.6875q0.265625 -0.25 0.5 -0.25q0.1875 0 0.28125 0.109375q0.09375 0.09375 0.09375 0.25q0 0.234375 -0.25 0.515625q-1.140625 1.203125 -2.625 1.890625q-1.484375 0.6875 -2.859375 0.6875q-1.171875 0 -2.234375 -0.484375q-0.78125 -0.359375 -1.234375 -0.828125q-0.703125 -0.75 -1.171875 -1.75q-0.453125 -1.015625 -0.453125 -1.984375q0 -0.625 0.125 -1.25l0.421875 -2.0q0.3125 -1.453125 1.421875 -2.984375q1.125 -1.53125 2.640625 -2.328125q1.53125 -0.8125 3.078125 -0.8125q1.21875 0 2.171875 0.421875q0.96875 0.40625 1.671875 1.25zm10.964844 -2.34375l-2.921875 13.71875l3.875 0q0.328125 0 0.4375 0.109375q0.125 0.09375 0.125 0.28125q0 0.234375 -0.203125 0.421875q-0.1875 0.171875 -0.578125 0.171875l-8.71875 0q-0.328125 0 -0.453125 -0.109375q-0.109375 -0.109375 -0.109375 -0.296875q0 -0.234375 0.1875 -0.40625q0.203125 -0.171875 0.59375 -0.171875l3.859375 0l2.703125 -12.734375l-2.84375 0q-0.328125 0 -0.453125 -0.09375q-0.109375 -0.109375 -0.109375 -0.296875q0 -0.234375 0.1875 -0.40625q0.203125 -0.1875 0.59375 -0.1875l3.828125 0zm13.605469 14.703125l0.296875 -1.421875q-2.53125 1.8125 -4.96875 1.8125q-1.578125 0 -2.375 -0.703125q-0.796875 -0.703125 -0.796875 -1.765625q0 -1.609375 1.40625 -2.75q1.75 -1.4375 4.5625 -1.4375q1.34375 0 3.125 0.359375l0.34375 -1.59375q0.03125 -0.171875 0.03125 -0.359375q0 -0.671875 -0.53125 -1.078125q-0.734375 -0.5625 -2.078125 -0.5625q-1.140625 0 -3.5 0.703125q-0.265625 0.078125 -0.375 0.078125q-0.15625 0 -0.265625 -0.109375q-0.109375 -0.109375 -0.109375 -0.28125q0 -0.21875 0.171875 -0.390625q0.171875 -0.1875 1.328125 -0.46875q2.015625 -0.53125 3.0 -0.53125q1.6875 0 2.53125 0.734375q0.84375 0.734375 0.84375 1.671875q0 0.296875 -0.0625 0.59375l-1.390625 6.515625l1.328125 0q0.328125 0 0.4375 0.109375q0.125 0.09375 0.125 0.28125q0 0.234375 -0.203125 0.421875q-0.1875 0.171875 -0.5625 0.171875l-2.3125 0zm1.046875 -4.90625q-1.328125 -0.375 -3.03125 -0.375q-2.359375 0 -3.765625 1.078125q-1.078125 0.828125 -1.078125 1.875q0 0.765625 0.5625 1.25q0.5625 0.484375 1.71875 0.484375q1.28125 0 2.484375 -0.5q1.203125 -0.5 2.640625 -1.640625l0.46875 -2.171875zm15.792969 -4.59375q0.0625 -0.34375 0.234375 -0.5q0.1875 -0.15625 0.390625 -0.15625q0.1875 0 0.296875 0.125q0.109375 0.109375 0.109375 0.25q0 0.09375 -0.046875 0.296875l-0.359375 1.6875q-0.078125 0.359375 -0.25 0.515625q-0.171875 0.140625 -0.390625 0.140625q-0.15625 0 -0.28125 -0.09375q-0.109375 -0.109375 -0.109375 -0.25l0.015625 -0.203125q0.015625 -0.09375 0.015625 -0.171875q0 -0.640625 -0.5625 -1.03125q-0.828125 -0.609375 -2.328125 -0.609375q-1.8125 0 -2.875 0.765625q-0.796875 0.578125 -0.796875 1.21875q0 0.640625 0.6875 1.03125q0.5 0.28125 2.125 0.46875q1.640625 0.171875 2.34375 0.40625q0.984375 0.328125 1.453125 0.921875q0.484375 0.59375 0.484375 1.34375q0 0.875 -0.640625 1.75q-0.625 0.859375 -1.921875 1.421875q-1.296875 0.5625 -2.921875 0.5625q-1.171875 0 -2.0625 -0.3125q-0.890625 -0.296875 -1.5 -0.875q-0.09375 0.484375 -0.234375 0.625q-0.203125 0.171875 -0.4375 0.171875q-0.171875 0 -0.28125 -0.109375q-0.109375 -0.109375 -0.109375 -0.25q0 -0.109375 0.03125 -0.296875l0.4375 -2.03125q0.078125 -0.34375 0.25 -0.5q0.171875 -0.15625 0.390625 -0.15625q0.171875 0 0.28125 0.109375q0.109375 0.109375 0.109375 0.265625q0 0.09375 -0.03125 0.28125q-0.03125 0.171875 -0.03125 0.25q0 0.671875 0.6875 1.171875q0.90625 0.671875 2.671875 0.671875q2.09375 0 3.1875 -0.828125q1.109375 -0.84375 1.109375 -1.65625q0 -0.453125 -0.328125 -0.875q-0.3125 -0.4375 -0.96875 -0.6875q-0.65625 -0.25 -2.15625 -0.40625q-1.484375 -0.15625 -2.171875 -0.390625q-0.6875 -0.25 -1.078125 -0.734375q-0.390625 -0.5 -0.390625 -1.125q0 -0.75 0.5 -1.453125q0.515625 -0.703125 1.6875 -1.21875q1.1875 -0.53125 2.640625 -0.53125q1.03125 0 1.796875 0.25q0.78125 0.234375 1.328125 0.75zm14.402344 0q0.0625 -0.34375 0.234375 -0.5q0.1875 -0.15625 0.390625 -0.15625q0.1875 0 0.296875 0.125q0.109375 0.109375 0.109375 0.25q0 0.09375 -0.046875 0.296875l-0.359375 1.6875q-0.078125 0.359375 -0.25 0.515625q-0.171875 0.140625 -0.390625 0.140625q-0.15625 0 -0.28125 -0.09375q-0.109375 -0.109375 -0.109375 -0.25l0.015625 -0.203125q0.015625 -0.09375 0.015625 -0.171875q0 -0.640625 -0.5625 -1.03125q-0.828125 -0.609375 -2.328125 -0.609375q-1.8125 0 -2.875 0.765625q-0.796875 0.578125 -0.796875 1.21875q0 0.640625 0.6875 1.03125q0.5 0.28125 2.125 0.46875q1.640625 0.171875 2.34375 0.40625q0.984375 0.328125 1.453125 0.921875q0.484375 0.59375 0.484375 1.34375q0 0.875 -0.640625 1.75q-0.625 0.859375 -1.921875 1.421875q-1.296875 0.5625 -2.921875 0.5625q-1.171875 0 -2.0625 -0.3125q-0.890625 -0.296875 -1.5 -0.875q-0.09375 0.484375 -0.234375 0.625q-0.203125 0.171875 -0.4375 0.171875q-0.171875 0 -0.28125 -0.109375q-0.109375 -0.109375 -0.109375 -0.25q0 -0.109375 0.03125 -0.296875l0.4375 -2.03125q0.078125 -0.34375 0.25 -0.5q0.171875 -0.15625 0.390625 -0.15625q0.171875 0 0.28125 0.109375q0.109375 0.109375 0.109375 0.265625q0 0.09375 -0.03125 0.28125q-0.03125 0.171875 -0.03125 0.25q0 0.671875 0.6875 1.171875q0.90625 0.671875 2.671875 0.671875q2.09375 0 3.1875 -0.828125q1.109375 -0.84375 1.109375 -1.65625q0 -0.453125 -0.328125 -0.875q-0.3125 -0.4375 -0.96875 -0.6875q-0.65625 -0.25 -2.15625 -0.40625q-1.484375 -0.15625 -2.171875 -0.390625q-0.6875 -0.25 -1.078125 -0.734375q-0.390625 -0.5 -0.390625 -1.125q0 -0.75 0.5 -1.453125q0.515625 -0.703125 1.6875 -1.21875q1.1875 -0.53125 2.640625 -0.53125q1.03125 0 1.796875 0.25q0.78125 0.234375 1.328125 0.75z" fill-rule="nonzero"></path><path fill="#d9d9d9" d="m12.102363 469.54523l316.40945 0l0 74.92914l-316.40945 0z" fill-rule="nonzero"></path><path stroke="#000000" stroke-width="2.0" stroke-linejoin="round" stroke-linecap="butt" d="m12.102363 469.54523l316.40945 0l0 74.92914l-316.40945 0z" fill-rule="nonzero"></path><path fill="#000000" d="m103.0317 508.90915l-6.546875 0l-1.1875 5.6562805l1.109375 0q0.53125 0 0.640625 0.109375q0.125 0.09375 0.125 0.28125q0 0.234375 -0.1875 0.421875q-0.1875 0.171875 -0.578125 0.171875l-3.421875 0q-0.328125 0 -0.4375 -0.125q-0.109375 -0.140625 -0.109375 -0.328125q0 -0.234375 0.1875 -0.375q0.1875 -0.15625 0.5625 -0.15625l1.125 0l2.484375 -11.7500305l-1.09375 0q-0.5 0 -0.671875 -0.09375q-0.15625 -0.09375 -0.140625 -0.328125q0 -0.234375 0.15625 -0.375q0.15625 -0.140625 0.671875 -0.1875l3.28125 0q0.421875 0.046875 0.53125 0.09375q0.125 0.046875 0.15625 0.28125q0 0.234375 -0.140625 0.40625q-0.140625 0.15625 -0.640625 0.203125l-1.125 0l-1.078125 5.109375l6.53125 0l1.078125 -5.109375l-1.109375 0q-0.546875 0 -0.671875 -0.09375q-0.109375 -0.09375 -0.109375 -0.296875q0 -0.234375 0.1875 -0.40625q0.203125 -0.1875 0.59375 -0.1875l2.921875 0q0.640625 0.015625 0.828125 0.109375q0.203125 0.078125 0.234375 0.28125q0.015625 0.25 -0.15625 0.40625q-0.15625 0.140625 -0.609375 0.1875l-1.109375 0l-2.5 11.7500305l1.109375 0q0.46875 -0.03125 0.609375 0.140625q0.15625 0.15625 0.15625 0.34375q0 0.234375 -0.25 0.375q-0.234375 0.125 -0.734375 0.125l-3.171875 0q-0.328125 0 -0.46875 -0.078125q-0.125 -0.09375 -0.125 -0.28125q0 -0.234375 0.09375 -0.390625q0.109375 -0.171875 0.671875 -0.234375l1.109375 0l1.21875 -5.6562805zm12.871094 -6.09375l-2.5 11.7500305l3.375 0q0.328125 0 0.4375 0.109375q0.125 0.09375 0.125 0.28125q0 0.234375 -0.1875 0.421875q-0.1875 0.171875 -0.578125 0.171875l-7.734375 0q-0.328125 0 -0.453125 -0.109375q-0.109375 -0.109375 -0.109375 -0.296875q0 -0.234375 0.1875 -0.40625q0.203125 -0.171875 0.578125 -0.171875l3.375 0l2.5 -11.7500305l-3.375 0q-0.328125 0 -0.453125 -0.09375q-0.109375 -0.09375 -0.109375 -0.296875q0 -0.234375 0.1875 -0.40625q0.203125 -0.1875 0.59375 -0.1875l7.71875 0q0.34375 0 0.453125 0.109375q0.125 0.09375 0.125 0.28125q0 0.25 -0.203125 0.421875q-0.203125 0.171875 -0.578125 0.171875l-3.375 0zm17.761711 0l-1.859375 8.703125q-0.375 1.7969055 -2.0 3.1094055q-1.625 1.3125 -3.4531174 1.3125q-1.125 0 -2.09375 -0.515625q-0.953125 -0.515625 -1.96875 -1.671875l0.78125 -3.6250305q0.0625 -0.359375 0.234375 -0.5q0.171875 -0.15625 0.40625 -0.15625q0.15625 0 0.265625 0.109375q0.125 0.09375 0.125 0.25q0 0.109375 -0.046875 0.296875l-0.671875 3.1562805q1.4375 1.671875 3.1875 1.671875q0.921875 0 1.7499924 -0.390625q0.84375 -0.40625 1.5625 -1.25q0.734375 -0.84375 0.9375 -1.7969055l1.859375 -8.703125l-3.875 0q-0.328125 0 -0.453125 -0.09375q-0.109375 -0.09375 -0.109375 -0.296875q0 -0.234375 0.1875 -0.40625q0.203125 -0.1875 0.59375 -0.1875l7.1875 0q0.328125 0 0.4375 0.109375q0.125 0.09375 0.125 0.28125q0 0.25 -0.203125 0.421875q-0.1875 0.171875 -0.5625 0.171875l-2.34375 0zm14.074219 0q0.140625 -0.65625 0.25 -0.78125q0.203125 -0.203125 0.453125 -0.203125q0.171875 0 0.28125 0.109375q0.109375 0.109375 0.109375 0.265625q0 0.09375 -0.046875 0.28125l-0.53125 2.515625q-0.078125 0.34375 -0.25 0.5q-0.171875 0.15625 -0.390625 0.15625q-0.15625 0 -0.28125 -0.109375q-0.109375 -0.109375 -0.109375 -0.25q0 -0.09375 0.03125 -0.25q0.03125 -0.15625 0.03125 -0.3125q0 -0.890625 -0.796875 -1.5625q-0.796875 -0.671875 -2.1875 -0.671875q-1.859375 0 -3.03125 1.03125q-1.171875 1.015625 -1.171875 2.28125q0 0.921875 0.703125 1.40625q0.703125 0.484375 2.46875 0.796875q1.765625 0.296875 2.390625 0.546875q0.859375 0.34375 1.296875 0.953125q0.453125 0.609375 0.453125 1.515625q0 1.2187805 -0.71875 2.3594055q-0.71875 1.140625 -2.1875 1.84375q-1.453125 0.703125 -3.03125 0.703125q-1.28125 0 -2.21875 -0.40625q-0.9375 -0.40625 -1.53125 -1.203125l-0.109375 0.5625q-0.078125 0.34375 -0.25 0.5q-0.171875 0.15625 -0.40625 0.15625q-0.15625 0 -0.265625 -0.109375q-0.109375 -0.109375 -0.109375 -0.25q0 -0.109375 0.03125 -0.296875l0.578125 -2.71875q0.078125 -0.35940552 0.25 -0.5156555q0.171875 -0.15625 0.390625 -0.15625q0.171875 0 0.28125 0.109375q0.109375 0.109375 0.109375 0.25q0 0.078125 -0.03125 0.25003052q-0.015625 0.15625 -0.015625 0.3125q0 1.015625 0.90625 1.78125q0.921875 0.75 2.609375 0.75q1.28125 0 2.421875 -0.546875q1.15625 -0.546875 1.71875 -1.40625q0.578125 -0.859375 0.578125 -1.7187805q0 -0.640625 -0.34375 -1.109375q-0.34375 -0.46875 -1.046875 -0.75q-0.453125 -0.1875 -2.015625 -0.46875q-2.109375 -0.375 -3.0 -1.03125q-0.921875 -0.65625 -0.921875 -1.921875q0 -1.71875 1.53125 -3.09375q1.546875 -1.390625 3.84375 -1.390625q1.03125 0 1.84375 0.328125q0.828125 0.3125 1.4375 0.96875zm8.105469 13.1250305q-2.0 0 -3.34375 -1.453125q-1.328125 -1.453125 -1.328125 -3.9062805q0 -1.9375 0.765625 -3.6875q0.78125 -1.765625 1.953125 -2.96875q1.171875 -1.203125 2.4375 -1.796875q1.265625 -0.609375 2.578125 -0.609375q2.359375 0 3.5 1.65625q1.15625 1.65625 1.15625 3.625q0 2.359375 -1.171875 4.5625q-1.15625 2.1875305 -2.96875 3.3906555q-1.8125 1.1875 -3.578125 1.1875zm0.171875 -0.984375q1.46875 0 3.03125 -1.046875q1.5625 -1.0625 2.53125 -2.9687805q0.96875 -1.921875 0.96875 -3.875q0 -2.09375 -1.125 -3.328125q-1.109375 -1.234375 -2.671875 -1.234375q-1.109375 0 -2.1875 0.53125q-1.0625 0.515625 -2.0625 1.5625q-0.984375 1.03125 -1.65625 2.5625q-0.65625 1.53125 -0.65625 3.140625q0 2.1719055 1.109375 3.4219055q1.125 1.234375 2.71875 1.234375zm19.121094 0.59375l-1.265625 0l-4.640625 -12.2656555l-2.390625 11.2812805l1.8125 0q0.328125 0 0.4375 0.109375q0.125 0.09375 0.125 0.28125q0 0.234375 -0.203125 0.421875q-0.1875 0.171875 -0.578125 0.171875l-3.625 0q-0.328125 0 -0.453125 -0.109375q-0.109375 -0.109375 -0.109375 -0.296875q0 -0.234375 0.1875 -0.40625q0.203125 -0.171875 0.578125 -0.171875l0.828125 0l2.5 -11.7500305l-1.3125 0q-0.328125 0 -0.453125 -0.09375q-0.109375 -0.09375 -0.109375 -0.296875q0 -0.234375 0.1875 -0.40625q0.1875 -0.1875 0.578125 -0.1875l2.5625 0l4.65625 12.2969055l2.40625 -11.3125305l-1.8125 0q-0.328125 0 -0.453125 -0.09375q-0.109375 -0.09375 -0.109375 -0.296875q0 -0.234375 0.1875 -0.40625q0.1875 -0.1875 0.578125 -0.1875l3.640625 0q0.328125 0 0.4375 0.109375q0.125 0.09375 0.125 0.28125q0 0.25 -0.203125 0.421875q-0.1875 0.171875 -0.578125 0.171875l-0.8125 0l-2.71875 12.7344055zm28.804688 0l-1.265625 0l-4.640625 -12.2656555l-2.390625 11.2812805l1.8125 0q0.328125 0 0.4375 0.109375q0.125 0.09375 0.125 0.28125q0 0.234375 -0.203125 0.421875q-0.1875 0.171875 -0.578125 0.171875l-3.625 0q-0.328125 0 -0.453125 -0.109375q-0.109375 -0.109375 -0.109375 -0.296875q0 -0.234375 0.1875 -0.40625q0.203125 -0.171875 0.578125 -0.171875l0.828125 0l2.5 -11.7500305l-1.3125 0q-0.328125 0 -0.453125 -0.09375q-0.109375 -0.09375 -0.109375 -0.296875q0 -0.234375 0.1875 -0.40625q0.1875 -0.1875 0.578125 -0.1875l2.5625 0l4.65625 12.2969055l2.40625 -11.3125305l-1.8125 0q-0.328125 0 -0.453125 -0.09375q-0.109375 -0.09375 -0.109375 -0.296875q0 -0.234375 0.1875 -0.40625q0.1875 -0.1875 0.578125 -0.1875l3.640625 0q0.328125 0 0.4375 0.109375q0.125 0.09375 0.125 0.28125q0 0.25 -0.203125 0.421875q-0.1875 0.171875 -0.578125 0.171875l-0.8125 0l-2.71875 12.7344055zm9.449219 0.390625q-1.9375 0 -3.1875 -1.21875q-1.234375 -1.234375 -1.234375 -3.1250305q0 -1.53125 0.9375 -3.109375q0.9375 -1.59375 2.578125 -2.515625q1.640625 -0.921875 3.3125 -0.921875q1.921875 0 3.15625 1.21875q1.25 1.21875 1.25 3.03125q0 1.59375 -0.90625 3.1719055q-0.90625 1.5625 -2.5625 2.515625q-1.640625 0.953125 -3.34375 0.953125zm0.21875 -0.984375q1.390625 0 2.734375 -0.78125q1.359375 -0.78125 2.09375 -2.0625q0.75 -1.2969055 0.75 -2.5937805q0 -1.484375 -1.015625 -2.46875q-1.015625 -1.0 -2.59375 -1.0q-1.140625 0 -2.125 0.453125q-0.96875 0.4375 -1.734375 1.15625q-0.75 0.703125 -1.25 1.703125q-0.484375 0.984375 -0.484375 2.03125q0 1.5469055 1.015625 2.5625305q1.015625 1.0 2.609375 1.0zm22.246094 -14.1094055l-2.921875 13.7187805l1.328125 0q0.328125 0 0.4375 0.109375q0.125 0.09375 0.125 0.28125q0 0.234375 -0.203125 0.421875q-0.1875 0.171875 -0.5625 0.171875l-2.328125 0l0.421875 -1.953125q-2.203125 2.34375 -4.890625 2.34375q-1.78125 0 -2.953125 -1.1875q-1.171875 -1.203125 -1.171875 -3.1250305q0 -1.5625 0.9375 -3.171875q0.953125 -1.609375 2.5 -2.5q1.546875 -0.90625 3.0625 -0.90625q2.578125 0 3.84375 2.34375l1.171875 -5.5625l-1.3125 0q-0.328125 0 -0.453125 -0.09375q-0.125 -0.109375 -0.125 -0.296875q0 -0.234375 0.203125 -0.40625q0.203125 -0.1875 0.578125 -0.1875l2.3125 0zm-8.3125 14.1094055q1.0625 0 1.984375 -0.4375q0.9375 -0.453125 1.6875 -1.171875q0.765625 -0.734375 1.234375 -1.7656555q0.46875 -1.03125 0.46875 -2.109375q0 -1.484375 -0.96875 -2.453125q-0.96875 -0.96875 -2.4375 -0.96875q-2.0625 0 -3.71875 1.65625q-1.640625 1.640625 -1.640625 3.734375q0 1.5469055 0.96875 2.5312805q0.96875 0.984375 2.421875 0.984375zm21.152344 -4.2500305l-10.03125 0q-0.046875 0.359375 -0.046875 0.546875q0 1.6094055 1.09375 2.6562805q1.09375 1.046875 2.953125 1.046875q1.09375 0 2.359375 -0.359375q1.28125 -0.359375 2.203125 -0.96875q0.265625 -0.171875 0.4375 -0.171875q0.140625 0 0.25 0.109375q0.109375 0.109375 0.109375 0.28125q0 0.21875 -0.1875 0.40625q-0.546875 0.5625 -2.171875 1.125q-1.609375 0.5625 -3.265625 0.5625q-2.15625 0 -3.46875 -1.28125q-1.296875 -1.28125 -1.296875 -3.2500305q0 -1.296875 0.5625 -2.453125q0.5625 -1.15625 1.46875 -1.984375q0.921875 -0.84375 2.125 -1.375q1.203125 -0.546875 2.625 -0.546875q2.015625 0 3.234375 1.1875q1.234375 1.171875 1.234375 3.015625q0 0.609375 -0.1875 1.453125zm-0.796875 -1.0q0.046875 -1.609375 -0.96875 -2.640625q-1.03125 -1.015625 -2.765625 -1.015625q-1.6875 0 -3.15625 1.0q-1.453125 0.984375 -2.140625 2.65625l9.03125 0z" fill-rule="nonzero"></path><path fill="#000000" fill-opacity="0.0" d="m170.30708 113.44095l165.07085 0l0 49.95276l-165.07085 0z" fill-rule="nonzero"></path><path fill="#000000" d="m187.49458 135.32469l-0.53125 2.484375q2.328125 -1.75 3.375 -2.234375q1.046875 -0.484375 1.84375 -0.484375q0.796875 0 1.4375 0.546875q0.640625 0.53125 0.640625 0.828125q0 0.25 -0.1875 0.4375q-0.1875 0.1875 -0.4375 0.1875q-0.125 0 -0.203125 -0.03125q-0.0625 -0.046875 -0.234375 -0.28125q-0.3125 -0.40625 -0.59375 -0.546875q-0.28125 -0.15625 -0.5625 -0.15625q-0.65625 0 -1.671875 0.515625q-1.0 0.515625 -3.671875 2.515625l-1.15625 5.390625l4.359375 0q0.34375 0 0.453125 0.109375q0.125 0.09375 0.125 0.28125q0 0.234375 -0.203125 0.421875q-0.203125 0.171875 -0.578125 0.171875l-7.734375 0q-0.328125 0 -0.453125 -0.09375q-0.109375 -0.109375 -0.109375 -0.28125q0 -0.234375 0.1875 -0.40625q0.1875 -0.171875 0.578125 -0.171875l2.375 0l1.75 -8.203125l-1.8125 0q-0.328125 0 -0.453125 -0.09375q-0.109375 -0.109375 -0.109375 -0.296875q0 -0.234375 0.1875 -0.421875q0.203125 -0.1875 0.578125 -0.1875l2.8125 0zm19.792969 5.3125l-10.03125 0q-0.046875 0.359375 -0.046875 0.546875q0 1.609375 1.09375 2.65625q1.09375 1.046875 2.953125 1.046875q1.09375 0 2.359375 -0.359375q1.28125 -0.359375 2.203125 -0.96875q0.265625 -0.171875 0.4375 -0.171875q0.140625 0 0.25 0.109375q0.109375 0.109375 0.109375 0.28125q0 0.21875 -0.1875 0.40625q-0.546875 0.5625 -2.171875 1.125q-1.609375 0.5625 -3.265625 0.5625q-2.15625 0 -3.46875 -1.28125q-1.296875 -1.28125 -1.296875 -3.25q0 -1.296875 0.5625 -2.453125q0.5625 -1.15625 1.46875 -1.984375q0.921875 -0.84375 2.125 -1.375q1.203125 -0.546875 2.625 -0.546875q2.015625 0 3.234375 1.1875q1.234375 1.171875 1.234375 3.015625q0 0.609375 -0.1875 1.453125zm-0.796875 -1.0q0.046875 -1.609375 -0.96875 -2.640625q-1.03125 -1.015625 -2.765625 -1.015625q-1.6875 0 -3.15625 1.0q-1.453125 0.984375 -2.140625 2.65625l9.03125 0zm10.121094 -3.3125l-1.734375 8.171875l4.328125 0q0.328125 0 0.4375 0.109375q0.125 0.09375 0.125 0.28125q0 0.234375 -0.203125 0.421875q-0.1875 0.171875 -0.578125 0.171875l-7.703125 0q-0.328125 0 -0.453125 -0.109375q-0.109375 -0.109375 -0.109375 -0.296875q0 -0.234375 0.1875 -0.40625q0.203125 -0.171875 0.59375 -0.171875l2.375 0l1.734375 -8.171875l-2.125 0q-0.328125 0 -0.453125 -0.09375q-0.109375 -0.109375 -0.109375 -0.296875q0 -0.234375 0.1875 -0.421875q0.1875 -0.1875 0.578125 -0.1875l2.140625 0l0.3125 -1.484375q0.265625 -1.25 1.46875 -2.15625q1.203125 -0.90625 2.875 -0.90625q1.296875 0 2.796875 0.234375q0.65625 0.09375 0.75 0.203125q0.09375 0.109375 0.09375 0.265625q0 0.234375 -0.1875 0.421875q-0.171875 0.171875 -0.453125 0.171875q-0.078125 0 -0.296875 -0.03125q-1.703125 -0.28125 -2.90625 -0.28125q-1.3125 0 -2.15625 0.640625q-0.828125 0.640625 -0.984375 1.4375l-0.328125 1.484375l4.609375 0q0.328125 0 0.4375 0.09375q0.125 0.125 0.125 0.3125q0 0.234375 -0.203125 0.421875q-0.1875 0.171875 -0.5625 0.171875l-4.609375 0zm16.746094 -5.546875l-2.921875 13.71875l3.875 0q0.328125 0 0.4375 0.109375q0.125 0.09375 0.125 0.28125q0 0.234375 -0.203125 0.421875q-0.1875 0.171875 -0.578125 0.171875l-8.71875 0q-0.328125 0 -0.453125 -0.109375q-0.109375 -0.109375 -0.109375 -0.296875q0 -0.234375 0.1875 -0.40625q0.203125 -0.171875 0.59375 -0.171875l3.859375 0l2.703125 -12.734375l-2.84375 0q-0.328125 0 -0.453125 -0.09375q-0.109375 -0.109375 -0.109375 -0.296875q0 -0.234375 0.1875 -0.40625q0.203125 -0.1875 0.59375 -0.1875l3.828125 0zm17.136719 9.859375l-10.03125 0q-0.046875 0.359375 -0.046875 0.546875q0 1.609375 1.09375 2.65625q1.09375 1.046875 2.953125 1.046875q1.09375 0 2.359375 -0.359375q1.28125 -0.359375 2.203125 -0.96875q0.265625 -0.171875 0.4375 -0.171875q0.140625 0 0.25 0.109375q0.109375 0.109375 0.109375 0.28125q0 0.21875 -0.1875 0.40625q-0.546875 0.5625 -2.171875 1.125q-1.609375 0.5625 -3.265625 0.5625q-2.15625 0 -3.46875 -1.28125q-1.296875 -1.28125 -1.296875 -3.25q0 -1.296875 0.5625 -2.453125q0.5625 -1.15625 1.46875 -1.984375q0.921875 -0.84375 2.125 -1.375q1.203125 -0.546875 2.625 -0.546875q2.015625 0 3.234375 1.1875q1.234375 1.171875 1.234375 3.015625q0 0.609375 -0.1875 1.453125zm-0.796875 -1.0q0.046875 -1.609375 -0.96875 -2.640625q-1.03125 -1.015625 -2.765625 -1.015625q-1.6875 0 -3.15625 1.0q-1.453125 0.984375 -2.140625 2.65625l9.03125 0zm14.8710785 -3.3125q0.140625 -0.671875 0.28125 -0.796875q0.1875 -0.203125 0.4375 -0.203125q0.171875 0 0.28125 0.125q0.109375 0.109375 0.109375 0.25q0 0.09375 -0.03125 0.296875l-0.484375 2.234375q-0.078125 0.359375 -0.25 0.515625q-0.171875 0.140625 -0.390625 0.140625q-0.171875 0 -0.28125 -0.09375q-0.109375 -0.109375 -0.109375 -0.25q0 -0.078125 0.015625 -0.234375q0.015625 -0.09375 0.015625 -0.1875q0 -0.796875 -0.75 -1.375q-0.984375 -0.765625 -2.609375 -0.765625q-1.4375 0 -2.703125 0.703125q-1.265625 0.6875 -2.046875 2.078125q-0.78123474 1.375 -0.78123474 2.71875q0 1.53125 0.96873474 2.46875q0.96875 0.9375 2.703125 0.9375q1.125 0 2.390625 -0.421875q1.28125 -0.421875 2.46875 -1.359375q0.296875 -0.234375 0.484375 -0.234375q0.171875 0 0.265625 0.09375q0.109375 0.09375 0.109375 0.265625q0 0.234375 -0.234375 0.484375q-0.828125 0.859375 -2.484375 1.515625q-1.65625 0.640625 -3.34375 0.640625q-1.984375 0 -3.1718597 -1.140625q-1.171875 -1.15625 -1.171875 -2.984375q0 -1.390625 0.578125 -2.65625q0.59375 -1.265625 1.4999847 -2.140625q0.921875 -0.875 2.09375 -1.421875q1.171875 -0.546875 2.625 -0.546875q1.140625 0 2.015625 0.34375q0.890625 0.328125 1.5 1.0zm8.542969 -1.0l5.34375 0q0.328125 0 0.4375 0.09375q0.125 0.09375 0.125 0.296875q0 0.21875 -0.09375 0.359375q-0.078125 0.125 -0.1875 0.1875q-0.15625 0.0625 -0.5 0.0625l-5.34375 0l-1.390625 6.546875q-0.0625 0.28125 -0.0625 0.515625q0 0.5625 0.578125 1.03125q0.578125 0.46875 1.703125 0.46875q1.03125 0 2.25 -0.296875q1.234375 -0.296875 1.96875 -0.6875q0.265625 -0.140625 0.421875 -0.140625q0.15625 0 0.265625 0.109375q0.109375 0.109375 0.109375 0.296875q0 0.25 -0.296875 0.453125q-0.71875 0.515625 -2.515625 0.9375q-1.3125 0.3125 -2.421875 0.3125q-1.46875 0 -2.265625 -0.671875q-0.796875 -0.6875 -0.796875 -1.65625q0 -0.296875 0.0625 -0.671875l1.390625 -6.546875l-1.8125 0q-0.328125 0 -0.453125 -0.09375q-0.109375 -0.109375 -0.109375 -0.296875q0 -0.234375 0.1875 -0.421875q0.203125 -0.1875 0.59375 -0.1875l1.8125 0l0.625 -2.90625q0.0625 -0.34375 0.234375 -0.5q0.1875 -0.15625 0.40625 -0.15625q0.15625 0 0.265625 0.109375q0.125 0.109375 0.125 0.265625q0 0.09375 -0.046875 0.28125l-0.609375 2.90625zm17.917969 -5.046875l-0.53125 2.546875l-1.4375 0l0.53125 -2.546875l1.4375 0zm-1.03125 5.046875l-1.9375 9.171875l3.859375 0q0.328125 0 0.4375 0.109375q0.125 0.09375 0.125 0.28125q0 0.234375 -0.1875 0.421875q-0.1875 0.171875 -0.578125 0.171875l-8.71875 0q-0.328125 0 -0.453125 -0.109375q-0.109375 -0.109375 -0.109375 -0.296875q0 -0.234375 0.1875 -0.40625q0.203125 -0.171875 0.578125 -0.171875l3.875 0l1.734375 -8.171875l-2.875 0q-0.328125 0 -0.453125 -0.09375q-0.125 -0.109375 -0.125 -0.296875q0 -0.234375 0.203125 -0.421875q0.203125 -0.1875 0.59375 -0.1875l3.84375 0zm11.605469 10.546875q-1.9375 0 -3.1875 -1.21875q-1.234375 -1.234375 -1.234375 -3.125q0 -1.53125 0.9375 -3.109375q0.9375 -1.59375 2.578125 -2.515625q1.640625 -0.921875 3.3125 -0.921875q1.921875 0 3.15625 1.21875q1.25 1.21875 1.25 3.03125q0 1.59375 -0.90625 3.171875q-0.90625 1.5625 -2.5625 2.515625q-1.640625 0.953125 -3.34375 0.953125zm0.21875 -0.984375q1.390625 0 2.734375 -0.78125q1.359375 -0.78125 2.09375 -2.0625q0.75 -1.296875 0.75 -2.59375q0 -1.484375 -1.015625 -2.46875q-1.015625 -1.0 -2.59375 -1.0q-1.140625 0 -2.125 0.453125q-0.96875 0.4375 -1.734375 1.15625q-0.75 0.703125 -1.25 1.703125q-0.484375 0.984375 -0.484375 2.03125q0 1.546875 1.015625 2.5625q1.015625 1.0 2.609375 1.0zm13.277344 -9.5625l-0.3125 1.5q1.296875 -1.078125 2.203125 -1.453125q0.90625 -0.390625 1.953125 -0.390625q1.453125 0 2.28125 0.78125q0.828125 0.765625 0.828125 2.0q0 0.234375 -0.0625 0.53125l-1.3125 6.203125l0.828125 0q0.328125 0 0.4375 0.109375q0.125 0.09375 0.125 0.28125q0 0.234375 -0.203125 0.421875q-0.1875 0.171875 -0.578125 0.171875l-2.640625 0q-0.328125 0 -0.453125 -0.109375q-0.109375 -0.109375 -0.109375 -0.296875q0 -0.234375 0.1875 -0.40625q0.203125 -0.171875 0.578125 -0.171875l0.84375 0l1.265625 -6.03125q0.0625 -0.28125 0.0625 -0.515625q0 -0.859375 -0.59375 -1.40625q-0.59375 -0.5625 -1.71875 -0.5625q-1.015625 0 -1.828125 0.40625q-0.796875 0.40625 -2.40625 1.9375l-1.3125 6.171875l1.109375 0q0.328125 0 0.4375 0.109375q0.125 0.09375 0.125 0.28125q0 0.234375 -0.203125 0.421875q-0.1875 0.171875 -0.5625 0.171875l-3.21875 0q-0.328125 0 -0.453125 -0.109375q-0.109375 -0.109375 -0.109375 -0.296875q0 -0.234375 0.1875 -0.40625q0.203125 -0.171875 0.59375 -0.171875l1.109375 0l1.734375 -8.171875l-0.828125 0q-0.328125 0 -0.453125 -0.09375q-0.109375 -0.109375 -0.109375 -0.296875q0 -0.234375 0.1875 -0.421875q0.1875 -0.1875 0.578125 -0.1875l1.8125 0z" fill-rule="nonzero"></path><path fill="#000000" fill-opacity="0.0" d="m170.30708 80.5538l0 115.71654" fill-rule="nonzero"></path><path stroke="#000000" stroke-width="2.0" stroke-linejoin="round" stroke-linecap="butt" d="m170.30708 80.5538l0 103.71654" fill-rule="evenodd"></path><path fill="#000000" stroke="#000000" stroke-width="2.0" stroke-linecap="butt" d="m167.00362 184.27034l3.3034668 9.076202l3.3034668 -9.076202z" fill-rule="evenodd"></path><path fill="#000000" fill-opacity="0.0" d="m170.30708 353.82867l0 115.71655" fill-rule="nonzero"></path><path stroke="#000000" stroke-width="2.0" stroke-linejoin="round" stroke-linecap="butt" d="m170.30708 353.8287l0 103.71652" fill-rule="evenodd"></path><path fill="#000000" stroke="#000000" stroke-width="2.0" stroke-linecap="butt" d="m167.00362 457.54523l3.3034668 9.076202l3.3034668 -9.076202z" fill-rule="evenodd"></path></g></svg>

